<?xml version="1.0" encoding="utf-8"?>
<!-- Generator: Adobe Illustrator 22.1.0, SVG Export Plug-In . SVG Version: 6.00 Build 0)  -->
<svg version="1.1" id="Camada_1" xmlns="http://www.w3.org/2000/svg" xmlns:xlink="http://www.w3.org/1999/xlink" x="0px" y="0px"
	 viewBox="0 0 650 800" style="enable-background:new 0 0 650 800;" xml:space="preserve">
<style type="text/css">
	.st0{opacity:0.1;}
	.st1{fill:#00233F;}
	.st2{fill:#113117;}
	.st3{fill:#252525;}
	.st4{fill:#18541F;}
	.st5{fill:#099B4A;}
	.st6{fill:#F9DF21;}
	.st7{fill:#D8D8D8;}
</style>
<g>
	<g class="st0">
		<path class="st1" d="M79.6,120.5l7.1,6.1l20.4,32.6c5.8,9.2,10.1,16.1,13.4,21.4c1.9,3.1,3.5,5.5,4.7,7.5
			c-0.6,6.6,0.9,13.1,4.3,18.8c1.4,2.4,3.1,4.5,5,6.4c-0.1,0.7-0.1,1.4-0.1,2.2c0,1.9,0.2,3.8,0.6,5.7c-1.1,2.8-1.7,5.8-1.7,8.8
			v37.3c0,14.3,0,23.2,0.2,29.2c-0.1,0.9-0.2,1.9-0.2,2.9v139c0,64.7,0.3,118.5,0.5,135.5c-0.6,4.3-0.5,9.8-0.3,21.8v0.9
			c0.4,21.8,0.5,27,6.6,37.3c6.1,10.4,15.6,18.4,26.7,22.4c6.9,2.5,12.7,2.7,77.5,3c13,0,23.3,0,32.2-0.1c12,0.1,21.1,0.2,27.1,0.3
			c4.5,8.9,13.1,14.5,22.9,14.5c8.7,0,18.1-4.9,22.5-14.4c8-0.3,21.1-0.3,37.6-0.3h47.9c0.6,0,1.4,0,2.4-0.1
			c39.6-0.1,48.5-0.2,61.6-10l0.2-0.1l0.7-0.5c5.3-4,9.6-10.1,12.4-14.5c0.3-0.5,0.6-1,0.9-1.6l2.9-5.3c1.8-3.4,2.8-7.2,2.8-11
			l0.3-21.9c0.2-10.6,0.3-15.7,0.1-19.5c0.6-11,0.8-47.8,0.8-134.4v-30.9c0-70.9,0-93.8-1.3-105.2c0.3-5.2,0.3-13.6,0.3-35.7v-38.5
			c0-2.8-0.5-5.6-1.5-8.2c0.6-2.3,0.9-4.6,0.9-6.9c0-0.6,0-1.2-0.1-1.8c1.6-1.6,3.1-3.4,4.3-5.3c3.8-5.9,5.4-12.9,4.7-20.1
			l17.8-28.3l21.3-33.8c1.4-1.1,2.7-2.2,3.8-3.1h0.1l2.7-2.3c5.7-4.7,13.4-12.2,18-18.5l0,0l0.1-0.1c0.2-0.3,0.4-0.5,0.6-0.8
			l0.3-0.4c5.8-8.4,8.6-12.6,8.6-20.3c0-14.3-10.6-20.4-17.8-24.5l-0.4-0.2l-0.3-0.2c-2.9-1.6-6.4-3.6-10.7-4.6l-0.1-0.1
			c-2.5-2.5-4.8-3.9-10.7-6.9l-4.3-2.2c-3.1-1.6-6.4-2.5-9.9-2.7c-2.8-1.8-6-3.1-9.4-3.6l-2.7-0.4l-0.2-0.2l-3.4-0.4
			c-4.4-0.5-7.5-0.8-10.4-0.8c-13.7,0-27.4,8.7-27.4,28c0,6.9,2.6,14.4,4.3,18.6c-2.9-2.2-6.3-3.8-10-4.5l-5.9-1.1
			c-4.9-1.1-8.5-1.9-12.6-1.9c-0.6,0-1.2,0-1.7,0c-1.8-0.9-3.9-1.6-6.1-2.2c-0.5-0.1-1.2-0.3-2.2-0.4c-0.7-0.2-2.7-0.6-6.4-1.6
			l-1.2-0.3h-0.1c-0.8-0.2-1.6-0.4-2.3-0.6l1.2-1.2c6.7-6.9,15.1-15.5,15.1-27.9c0-10.6-5.1-19.4-14-24.1c-5.1-2.8-10.5-3.4-15.6-4
			c-2.5-0.3-4.8-0.6-7.1-0.6c-0.5,0-1.1,0-1.6,0c-3.3-1.4-6.9-2.2-10.7-2.3c-0.3,0-0.9-0.1-2-0.3c-2.1-0.4-4.1-0.6-6.3-0.6
			c-1.3,0-2.7,0.1-3.9,0.3c-3.5-1.3-7-2-12.2-2.7c-2.5-0.4-4.5-0.6-6.6-0.6c-0.2,0-0.4,0-0.6,0c-3.2-1.2-6.2-1.6-8.1-1.9l-0.9,0
			c-0.3-0.1-0.7-0.1-1.1-0.1c-0.7-0.1-2-0.2-4.1-0.7c-2.3-0.5-4.1-0.7-6-0.7c-11.5,0-21.2,7.6-24.1,19l-0.1,0.2
			c-0.7,3-0.8,5.8-0.8,9c0,11.2,4.3,18.4,9,26l-6.7-0.2c-6.8-0.2-8.7-0.2-9.5-0.2h-0.5c-1.1,0-2.3,0.1-3.4,0.2
			c-2.1-0.5-4.1-0.8-6.2-0.8c-2.2,0-4.3,0.3-6.4,0.8c-0.9,0.1-2.3,0.2-3.8,0.2c0,0-6.7,0-6.8,0c4.8-7.9,15.6-25.9,4.4-42.5
			c-2.2-3.4-8.9-11.2-22-11.2c-2.7,0-5.4,0.3-8.8,0.9c-2.2,0.3-4.9,0.8-7.8,1.7C269.6,3,269,3,268.3,3c-2.6,0-4.8,0.3-6.7,0.6
			c-5.3,0.7-8.9,1.4-12.5,2.8c-1.3-0.2-2.5-0.3-3.9-0.3c-2.2,0-4.5,0.3-6.8,0.8c-0.2,0.1-0.7,0.1-0.9,0.2c-3.9,0-7.7,0.9-11.1,2.4
			c-0.9-0.1-1.7-0.1-2.5-0.1c-2.6,0-4.9,0.3-7,0.6h-0.1c-6.2,0.9-22.8,3.3-28.2,19.7c-5.5,17,7.1,29.2,14.7,36.5l1.5,1.4
			c-1.7,0.3-3.6,0.7-5.9,1.2l0,0c-1.4,0.3-4.1,0.9-9.8,2.3c-1.8,0.4-3.5,1-5.2,1.8c-0.2,0-0.3,0-0.5,0c-3.6,0-7,0.7-9.4,1.2
			c-6.9,1.4-12.8,2.5-17.7,5.8c-0.1,0-0.4,0-0.5,0c1.7-3.9,4.5-11.5,4.5-18.4c0-3.5,0-11.8-6.3-19c-7.6-8.9-17.8-8.9-21.2-8.9
			c-2.5,0-5.7,0.2-10.8,0.8c-0.2,0-0.4,0-0.6,0.1h-0.1l-5.5,0.9c-3.5,0.6-6.7,1.8-9.5,3.7c-3,0.2-5.9,0.9-8.6,2.1l-4.2,1.9l-4.5,2
			c-2.7,1.2-5.3,2.9-7.4,5c-2.2,0.6-4.2,1.4-6.2,2.6l-5.2,3.1c-8,4.7-13.9,9.5-16.4,17.5c-4.5,14,4.8,24.9,10.2,31.4
			C68.9,110.4,74.6,116.2,79.6,120.5z"/>
		<path class="st1" d="M645.2,676.9c-4.3-9.4-11.7-13.4-16.7-16.1l-0.5-0.3l-0.2-0.1c-6.1-3.3-13.3-5.1-20.8-5.1
			c-15.4,0-30,7.3-37.3,18.7c-0.3,0.5-0.6,1-0.9,1.5c-1.1,1.9-2,3.9-2.7,6.2c-3-0.5-6.1-1-8.9-1.4c-12.6-1.8-34.9-2.6-51.5-2.6
			c-11,0-19.4,0.3-25.6,0.8c-14.1,1.2-20.6,2-59,7.5c-33.2,4.9-44.7,5.6-94.6,5.6h-7c-48,0-59-1.1-99.4-7
			c-36.8-5.5-42.1-5.9-66.6-6.7c-4-0.1-8.1-0.2-12.2-0.2c-20.4,0-39.6,1.4-55.7,4.1c-1.4-3.9-3.5-7.7-6.9-11.6
			c-8.1-9.8-19.6-14.7-34-14.7c-13.5,0-25.5,5.1-33.6,14.2h-0.6L7.8,674c-6,9.1-6.6,16.1-5.7,25.9c1.2,12.6,6.2,24.9,17.1,42.6
			c0.2,0.4,0.5,0.9,0.8,1.3c4,6.4,8.9,14.5,10.9,18.4l0.1,0.2l0.1,0.2c0.3,0.5,0.6,1.1,0.9,1.8l0.1,0.3l0.1,0.3
			c3.4,6.6,9,17.5,26.1,21.2c8.3,1.8,18.5,1.9,42.9,2c3.8,0,8.1,0,12.6,0.1h0.1c63.9,0.5,71.5,0.9,162.6,9.2
			c14.8,1.4,33.6,2.6,42,2.7h1.3c16.9,0,50.8-2.1,84.3-5.3c51.5-4.8,62.3-5.2,113.9-6c29.9-0.5,57.6-0.8,62.4-0.8
			c11.7,0,19.4-0.5,29.5-10.4l0.2-0.2c4-4,8.7-10.8,11.9-16.9c1.7-3.2,5.7-10.1,8.8-15.1c3.8-5.8,7.9-13,10-17
			c0.3-0.5,0.5-1,0.7-1.5l0.2-0.4c5.3-6.5,5.9-14.3,6.2-17.4c0.2-2.8,0.3-6.4,0.3-10.4v-0.9C648.2,689.5,648.2,683.5,645.2,676.9z"
			/>
	</g>
	<g>
		<path class="st2" d="M494.2,304.8c0.5-3.5,0.6-12.6,0.6-36.3v-38.4h-21.6c-8.8,0-14.1,0-17.1,0.2l0.1-0.5H325H193.8v0.5
			c-3.2-0.2-8.5-0.3-16.1-0.3h-20.6v37.3c0,17.7,0.1,27.1,0.3,32.1h-0.3v139c0,67.1,0.3,124.2,0.6,137.5c-0.6,1.7-0.6,6.5-0.4,20.1
			c0.4,20.5,0.4,20.9,3.3,25.7c3.3,5.7,8.3,10,14.2,12c3.2,1.2,17.6,1.4,69.5,1.6c12.5,0,23.2,0,32.2-0.1
			c25.6,0.1,37.6,0.4,38.9,1.1c3.4,1.8,8.1,6.4,8.1,8c0,0.7,0.2,1.1,0.6,1.3c0,0.2,0.1,0.5,0.1,0.7c0.7,4,3.4,5,3.7,1.4
			c0.1-1.5,0.2-2.6,0.3-3.7c0.4-0.5,0.8-1,1.2-1.7c4-7,4-7,57.5-7h47.9v-0.1c43.5-0.1,43.9-0.8,50.5-5.9c1.9-1.4,4.8-5.2,6.4-8.1
			l3-5.6l0.3-22c0.2-10.8,0.3-16.3,0-19c0.6-8.2,0.8-53.6,0.8-134.5C495.7,343.6,496,313.7,494.2,304.8z M479.6,558.3
			c0-0.9-0.4-1.5-1.1-1.5c-0.5,0-1.1-0.8-1.1-1.6c0-0.9-1-1.6-2-1.6c-1.3,0-2-0.7-2-2c0-1.5-0.8-2-2.6-2c-2.2,0-2.6-0.5-2.6-2.8
			c-0.1-3.1-2-6.6-3.8-6.6c-0.6,0-1.6-1.4-2.3-3.2c-0.9-2-2.2-3.2-3.5-3.2c-1.2,0-2-0.8-2-1.8c-0.1-2.5-2.5-5.6-4.4-5.6
			c-1,0-2-1.4-2.3-3.3c-0.3-1.9-1.4-3.5-2.5-3.8c-1.1-0.2-2.5-1.8-3.3-3.6c-0.8-1.6-1.9-3-2.5-3c-0.8,0-1.9-1.4-2.6-3.2
			c-1.2-2.2-2.2-3.2-4-3.2s-2.5-0.6-2.5-2c0-3-1.2-5.4-2.6-5.4c-0.8,0-1.6-1.1-1.9-2.2c-0.3-1.2-1.6-2.4-2.7-2.7
			c-1.3-0.4-2.2-1.4-2.2-2.3c-0.1-2.2-3.7-6.4-5.6-6.4c-0.9,0-1.8-1.3-2-3c-0.5-1.7-1.5-3.4-2.5-3.7c-1.1-0.3-2.5-2-3.3-3.8
			c-0.9-2-2.2-3.2-3.5-3.2s-2-0.8-2-1.9c0-1.9-3.6-6.4-5.1-6.4c-0.4,0-1.3-1.4-2-3.2c-0.9-2-2.2-3.2-3.4-3.2c-1.3,0-2.1-0.9-2.3-2.3
			c-0.3-1.8-1.3-2.5-3.2-2.7c-2.6-0.4-2.9-0.9-2.9-4.1c0-2.7-0.5-3.8-2-4.2c-2.3-0.7-2.9-3.5-0.9-3.5c1.7,0,6.1-5.2,6.1-7
			c0-0.8,0.7-1.4,1.5-1.4c1.6,0,4.8-4.4,4.8-6.8c0-0.9,1-1.6,2-1.6s2-0.4,2-0.8c0-0.6,1.7-2.7,3.7-5c2-2.2,3.7-4.7,3.7-5.5
			c0-0.7,0.8-1.5,1.6-1.9c0.9-0.3,1.6-1.6,1.6-2.7c0-1.3,0.7-2,2-2c1.2,0,2-0.4,2-0.8c0-0.6,1.7-2.7,3.7-5s3.7-5.1,3.7-6.1
			c0-1.2,0.8-1.9,2-1.9c2,0,5.4-4.1,5.4-6.8c0-0.9,1-1.6,2-1.6c1.3,0,2.3-1,2.7-2.6c0.3-1.5,1.3-2.6,2-2.6c1.5,0,4.7-4.5,4.7-6.8
			c0-0.9,1-1.6,2-1.6c1.2,0,2-0.4,2-0.8c0-0.6,1.7-2.7,3.7-5c2-2.2,3.7-4.7,3.7-5.5c0-0.7,1-1.5,2-1.8c1.3-0.3,2.3-1.8,2.7-3.8
			c0.5-2.2,1.3-3.3,2.5-3.3c1.3,0,2.5-1.3,3.3-3s2.2-3.4,3.3-3.6c1.2-0.3,2.2-1.9,2.5-3.8c0.5-2.3,1.3-3.3,2.7-3.3
			c1.4,0,2-1,2.6-3.2c0.5-2.1,1.2-3.2,2.5-3.2c1.2,0,2.5-1.2,3.2-2.3c0.8-1.5,1.3-2.3,2.4-3.7c0.5-0.4,1.1-0.9,1.6-1.4
			c1.3-1.3,2.3-2.7,2.8-3.6l1.5-1.7c0.5,0.1,0.9,0.8,0.9,1.6c0,0.5,0.1,0.9,0.3,1.2v122.4c0,58.9-0.1,108.6-0.1,122.8
			c-0.2,0.7-0.5,1.1-0.9,1.4c-0.4-0.6-1-1.1-1.8-1.3c-0.2,0-0.3-0.1-0.5-0.2c0-0.1,0-0.2,0-0.3C484.5,561.7,482.3,559.4,479.6,558.3
			C479.7,558.4,479.6,558.4,479.6,558.3z M443.2,237.8c-1.1,0.3-2.4,1.4-2.8,2.5s-1.6,2.5-2.6,3.3c-0.8,0.6-1.4,1.7-1.7,2.9
			c-0.3,0.2-0.5,0.5-0.8,0.7c-1.3,1.1-2.4,2.6-2.4,3.5s-0.5,1.5-1.2,1.5c-1.7,0-4,3.2-4.1,5.6c0,1.1-0.9,1.8-2,1.8
			c-1.6,0-2.3,1-2.7,3.2c-0.5,1.8-1.4,3.2-2.3,3.2c-1.9,0-4.3,3-4.4,5.6c0,1.1-0.9,1.8-2,1.8c-1.3,0-2.6,1.3-3.5,3.2
			c-0.8,1.8-1.9,3.2-2.6,3.2s-1.8,1.3-2.5,3c-0.8,1.8-2.2,3.4-3.2,3.6s-2.3,1.9-3.2,3.8c-0.9,1.8-1.9,3.3-2.4,3.3
			c-1.7,0-3.7,3.7-3.8,6.6c0,2.2-0.4,2.8-2.7,2.8c-1.8,0-3,0.6-3.3,2c-0.3,1.2-1.1,2-1.7,2c-1.4,0-3.8,3.3-3.8,5.6
			c0,1-0.8,1.8-1.7,1.8c-1.9,0-5.6,4-5.7,6.1c0,0.6-0.8,1.3-1.6,1.3c-1.1,0-2,1.3-2.2,3.2c-0.5,1.8-1.4,3.2-2.3,3.2
			c-1.9,0-4.3,3-4.4,5.4c0,1-1,2-2,2.3c-1.2,0.4-2,1.3-2,2.2c0,1-0.5,1.7-1.2,1.7c-1.7,0-4,3.2-4.1,5.6c0,1-0.8,1.8-1.7,1.8
			c-1.9,0-5.6,4-5.7,6.1c0,0.6-0.5,1.3-1.2,1.3c-1.7,0-4,3.2-4.1,5.6c0,1-0.8,1.8-1.7,1.8c-1.9,0-5.6,4-5.7,6.1
			c0,0.6-0.7,1.3-1.5,1.3c-1.6,0-2.7,2.1-2.7,5.4c0,1.3-0.8,2-1.8,2c-3.8-0.3-5.6-1.2-5.6-2.9c0-1.1-1.2-3.1-2.6-4.7
			c-1.5-1.7-3.5-4-4.4-5.5c-0.9-1.4-2.4-2.5-3.5-2.5c-1.3,0-2.1-1.2-2.4-3.2c-0.5-2-1.4-3.2-2.3-3.2s-1.6-0.6-1.6-1.3
			c-0.2-1.7-3.8-6.1-5-6.1c-0.4,0-1.3-1.2-1.9-2.3c-0.6-1.5-2.1-2.5-3.8-2.7c-2.2-0.3-2.9-0.9-2.9-2.9c0-3.4-1.8-6.7-3.5-6.7
			c-0.8,0-1.9-1.4-2.6-3.2c-0.9-1.7-2-3.2-2.6-3.2s-2-1.6-2.9-3.5c-1-1.9-2.6-3.5-3.8-3.7c-1.4-0.2-2.4-1.4-2.8-3.5
			c-0.4-1.8-1.3-3-2.2-3c-0.9,0-1.6-0.6-1.6-1.3c-0.2-1.7-3.8-6.1-5-6.1c-0.5,0-1.5-1.4-2.2-3.2c-0.9-2-2.2-3.2-3.5-3.2
			s-2-0.8-2-2.2c0-1.3-0.9-2.4-2-2.7c-1.2-0.4-2-1.4-2-2.3c-0.1-2.2-3.7-6.4-5.7-6.4c-1,0-1.7-0.9-1.7-1.8c-0.1-2.5-2.5-5.6-4.4-5.6
			c-1,0-2-1.4-2.3-3.3s-1.4-3.5-2.5-3.8c-1.1-0.2-2.5-1.8-3.3-3.6c-0.8-1.6-1.9-3-2.5-3c-0.8,0-1.8-1.2-2.3-2.3
			c-0.6-1.5-2.1-2.5-3.8-2.7c-2.2-0.3-2.9-1-2.9-2.8c0-3.4-1.1-5.9-2.5-5.9c-0.7,0-1.8-1.3-2.5-2.8c-1.3-2.8-5.4-7.7-7.7-9.5
			c-0.1-0.3-0.1-0.5-0.2-0.7c6.7-0.3,56.2-0.6,116.4-0.6C428.9,236.5,441.6,236.5,443.2,237.8z M165.6,316.3L165.6,316.3
			c0,1.5,0.4,2,1.8,2.1c7.8,9.4,10.7,12.1,12.9,12.1c1.9,0,2.4,0.5,2.4,2.7c0,3.4,1.8,6.7,3.6,6.7c0.9,0,1.7,1,2,2
			c0.3,1.3,1.5,2,2.7,2c1.5,0,2.2,0.6,2.2,2c0,2.6,2.9,7.3,4.6,7.3c0.7,0,1.8,1.4,2.5,3.2c0.9,1.8,2.2,3.2,3.4,3.2s2.1,1.2,2.5,3.2
			c0.4,2.2,1.2,3.2,2.7,3.2c1.2,0,2,0.8,2,1.6c0,2.3,3.1,6.8,4.7,6.8c0.8,0,1.6,1.1,1.9,2.2s1.6,2.4,2.7,2.7c1.3,0.3,2.2,1.3,2.2,2
			c0,2.2,3.1,6.6,4.8,6.6c0.9,0,1.5,0.7,1.5,1.5s1.2,2.6,2.6,4.2c1.5,1.7,3.5,4,4.4,5.5c0.9,1.4,2,2.5,2.8,2.5
			c0.7,0,1.8,1.5,2.5,3.2c1.2,2.2,2.2,3.2,4,3.2s2.5,0.5,2.5,2c0,2.6,2.9,7.3,4.6,7.3c0.7,0,1.8,1.5,2.5,3.2
			c0.9,1.8,2.2,3.2,3.4,3.2s2.1,1.2,2.5,3.2c0.4,2.2,1.2,3.2,2.6,3.2s2,1,2.6,3.2c0.3,1.8,1.3,3.2,2,3.2c1.3,0,2.7,3,2.7,6.1
			c0,0.7-1.1,1.4-2.2,1.6c-1.2,0.2-2.9,1.7-3.8,3.5c-1,1.7-2.9,4-4.1,5.1c-1.4,1.2-2.4,2.9-2.4,4c0,1.3-0.8,2-2,2
			c-2.1,0-3.3,1.9-3.3,5.3c0,1.3-0.9,2.1-2.3,2.3c-1.4,0.2-2.8,1.3-3.5,2.7c-0.6,1.3-1.6,2.3-2.3,2.3c-1.6,0-3.5,3.4-3.5,6.2
			c0,1.4-0.9,2.2-2.3,2.4c-1.8,0.3-2.5,1.3-2.7,3.3s-1,2.8-2.5,2.8c-2.6,0-5,2.8-5.1,6.1c0,1.6-0.8,2.4-2.3,2.6
			c-1.4,0.2-2.8,1.3-3.5,2.7c-0.5,1.3-1.4,2.3-2,2.3c-1.3,0-3.7,3.3-3.8,5.6c0,1-0.7,1.8-1.5,1.8c-1.9,0-10.1,9.4-10.1,11.7
			c0,1.2-0.8,1.9-2,1.9c-1.3,0-2.6,1.3-3.5,3.2c-0.8,1.8-1.9,3.2-2.6,3.2c-0.7,0-1.8,1.5-2.6,3.2c-0.8,1.8-1.9,3.2-2.2,3.2
			c-1.3,0-4.9,4.4-5,6.1c0,0.6-0.5,1.3-1.2,1.3c-1.7,0-4,3.2-4.1,5.6c0,1.1-0.9,1.8-2,1.8c-1.3,0-2.6,1.3-3.5,3.2
			c-0.8,1.8-2,3.2-2.6,3.2c-0.8,0-1.4,1.1-1.4,2.5c-1.7,0.7-3.3,2.3-6.5,6c-0.6,0.7-1.3,1.4-1.8,2c-0.6-10.2-0.8-52.1-0.8-124.6
			l0.1-127h0.1c0,0,0,0,0.1,0L165.6,316.3z M330,631.6l-5.1,2.6l-3.3-2.3c-3.4-2.3-3.6-2.3-51.8-2.9l-48.4-0.6l1.8-1.7l0,0
			c1.1-0.2,2.5-1.9,3.3-3.6c0.4-0.7,0.9-1.5,1.4-2c0.5-0.2,1-0.7,1.3-1.4c0.4-0.3,0.7-0.6,1-0.7c1.3-0.5,2-1.7,2.3-3.6
			c2.7-2.1,7.5-7.7,7.5-9.2c0-0.7,0.9-1.5,2-1.8c1.1-0.2,2.5-1.9,3.4-3.8c0.9-1.8,2-3.3,2.7-3.3c0.9,0,1.4-1.3,1.4-3
			c0-2.6,0.5-3.2,2.8-3.5c1.9-0.2,3.3-1.3,4.4-3.7c1-1.9,2.2-3.5,3-3.5c0.6,0,1.3-0.4,1.3-0.8c0-0.5,1.9-2.9,4.2-5.5
			c2.3-2.6,4.2-5.3,4.2-6.1s0.8-1.4,1.7-1.4c0.9,0,2.1-1.4,2.8-3.2c0.7-1.7,1.7-3.2,2.3-3.2c1.4,0,5.9-5.7,5.9-7.3
			c0-0.5,0.8-1.1,1.6-1.1c0.9,0,1.6-0.3,1.6-0.9c0-0.5,1.7-2.7,3.7-5c2-2.2,3.7-4.8,3.7-5.5c0-0.8,0.8-1.4,1.6-1.4
			c1.8,0,3.7-3.2,3.7-6.2c0-1.3,0.7-2.2,1.7-2.2c2.2,0,4.6-2.6,4.6-5.2c0-1.5,0.7-2.2,1.9-2.2c2.4,0,4.4-2,4.4-4.3
			c0-1,1.1-2,2.2-2.3c1.2-0.3,2.4-1.6,2.7-2.7c0.3-1.3,1.2-2.2,1.9-2.2c1.5,0,4.7-4.5,4.7-6.8c0-0.9,1-1.6,2-1.6
			c1.2,0,2.3-0.6,2.5-1.3c0.4-0.9,0.7-0.6,0.7,0.6c0.1,2.4,3.1,7,4.7,7c0.7,0,1.7,1.1,2.2,2.4c0.7,1.3,2,2.4,3.5,2.6
			c1.5,0.3,2.3,1.2,2.3,2.3c0,3.3,1.3,5.3,3.2,5.3c1.3,0,2.1,1,2.3,2.4c0.2,1.5,1.2,2.4,2.7,2.6c1.5,0.2,2.3,1.1,2.3,2.4
			c0,2.7,3,7.2,4.8,7.2c0.9,0,1.5,0.8,1.5,1.6s0.4,1.6,1,1.6s1.3,1,1.5,2c0.3,1.3,1.5,2,2.7,2c1.5,0,2.2,0.6,2.2,2
			c0,1.5,0.8,2,2.6,2c2,0,2.6,0.5,2.6,2.7c0,3.3,1.8,6.7,3.5,6.7c0.8,0,1.9,1.5,2.6,3.2c0.9,1.8,2,3.2,2.9,3.2s1.5,0.7,1.5,1.4
			s1.7,3.2,3.7,5.6c2,2.1,3.7,4.4,3.7,4.8c0,0.4,0.9,1,1.9,1.3s2.4,2,3.3,3.8s2.3,3.6,3.3,3.8c1.1,0.3,2.1,1.4,2.4,2.5s1.5,2,2.7,2
			c1.6,0,2.2,0.7,2.2,2.4c0.2,2.3,3.3,7,5,7c0.5,0,1.5,1.5,2.3,3.3c0.9,1.9,2.3,3.6,3.3,3.8c1.1,0.3,2.1,1.4,2.4,2.5
			c0.5,1.4,1.5,2,4,2c0,0.2,0,0.5,0,0.8c0,2.6,1.1,4.7,4.2,8.3c2.3,2.6,4.2,5.3,4.2,6c0,0,0,0.1-0.1,0.1h-44h-49.8L330,631.6z
			 M488.6,598.1c-0.5,13.8-0.7,15.1-3.3,19.6c-5.4,9.2-10.8,11.3-29.1,11.3h-13.4l-3.4-4.3c-7.2-9.5-11.3-13.2-15-13.5
			c0-0.3,0-0.6,0-1c0-2.7-0.5-3.9-1.9-4.3c-1.1-0.2-2.3-1.9-3-3.6c-0.8-1.8-2.2-3.5-3.4-3.8c-1.3-0.4-2.2-1.3-2.2-2.2
			c0-2.2-3.1-5.5-5.5-5.5c-1.3,0-1.9-0.8-1.9-2.7c0-1.8-0.6-3-2-3.3c-1.2-0.3-2-1.3-2-2s-1.2-2.6-2.6-4.1c-1.5-1.5-2.6-3-2.6-3.6
			c0-0.5-1.3-2-2.8-3.4c-1.7-1.3-3.5-3.5-4.1-4.6c-0.7-1.1-2.1-2.3-3.4-3c-1.3-0.6-2.3-2-2.5-3.2s-1.3-2.4-2.5-3s-2.7-2.3-3.4-4
			c-0.9-2.1-1.8-2.9-3.8-2.9c-2.3,0-2.7-0.5-2.7-3.2c0-2.4-0.4-3.2-2-3.2c-1.3,0-2-0.8-2-1.9c0-2-3.2-6.4-4.8-6.4
			c-0.6,0-1.7-1.6-2.5-3.5c-1-2-2.4-3.5-3.8-3.7c-1.8-0.3-2.4-1.1-2.4-3c0-1.7-0.7-2.9-2-3.2c-1.2-0.4-2-1.4-2-2.3
			c0-2.3-2-4.3-4.3-4.3c-1.3,0-2-1-2.2-2.8s-1.3-3.4-2.6-4c-1.4-0.6-2.4-1.7-2.4-2.5c0-2.1-3.1-5.4-5.5-5.4c-1.3,0-1.9-0.8-1.9-2.7
			c0-2.7-0.2-2.7-4.7-2.3c-5.3,0.7-7.9,2.3-7.9,5.1c0,1.1-1.1,2.1-2.2,2.4c-1.2,0.3-2.6,2-3.3,3.7c-0.7,1.7-2.2,3.5-3.4,4
			c-1.3,0.5-2.3,1.9-2.5,3c-0.2,1.3-1.4,2.6-2.6,3.2c-1.4,0.7-2.4,2.2-2.6,4c-0.2,1.7-1,2.8-1.9,2.8c-2.2,0-4.6,2.6-4.6,5.2
			c0,1.5-0.7,2.2-1.9,2.2c-2.3,0-4.4,2-4.4,4.2c0,0.9-1.2,2-2.3,2.6c-1.3,0.7-2.7,2-3.4,3.2c-0.7,1.2-2.2,3-3.5,4
			c-1.4,1.1-2.4,2.2-2.4,2.8s-1.4,2.3-3.2,4c-1.7,1.8-3.2,3.9-3.2,4.8c0,1-0.8,1.7-1.7,1.7c-1,0-2.1,1.5-2.8,3.2
			c-0.7,1.8-1.8,3.2-2.5,3.2c-0.8,0-2.2,1.3-3.2,2.9c-1.1,1.6-3.1,4-4.7,5.3c-1.7,1.3-2.9,2.9-2.9,3.6c0,0.7-1.2,2-2.6,3.2
			c-1.7,1.4-2.6,3.1-2.6,5.2c0,2.4-0.4,3-2.6,3c-1.9,0-2.6,0.5-2.6,2c0,1.1-1.1,2.2-2.2,2.5s-2.6,2-3.4,3.8
			c-0.7,1.8-1.8,3.3-2.5,3.3s-2.1,1.3-3.2,2.9c-1.1,1.6-2.7,3.5-3.7,4.2c-0.9,0.7-1.7,2-1.9,3c-1.8,0.6-3,1.7-3.3,2.7
			c-0.7,0.4-1.4,1.1-1.8,2c-0.8,0.1-1.8,1-2,2c-0.3,1.2-1.2,2-1.7,2s-1,0.4-1,1c0,0.1,0,0.2-0.1,0.3c-0.8,0.8-1.5,1.7-1.7,2.2
			c-0.6,0.7-1.3,1.5-2,2.1l-3.7,3.8h-13.8c-15.3,0-19.2-1.2-25-6.6c-4.8-4.8-6.4-11.3-6.4-26.3c0-12,0.1-12.8,2.8-16.5
			c1.7-2,3.6-4.3,4.2-4.7c0.8-0.4,1.4-1.3,1.4-1.9v-0.1c1.1-0.3,1.8-1.3,1.9-2.4c0.7-0.7,1.5-1.6,2.3-2.3c3.3-3,4.2-4.6,4.2-7.3
			c0-0.1,0-0.1,0-0.2c0.2-0.6,0.6-0.9,1.1-0.9c1.9,0,5.1-3.3,5.1-5.2c0-1,1.1-2.1,2.4-2.7c1.3-0.7,2.4-2.1,2.6-3.4
			c0.3-1.4,0.9-2.4,1.5-2.4c1.9,0,5.1-3.3,5.1-5.2c0-1,1.2-2.1,2.3-2.7c1.3-0.7,2.8-2,3.4-3.2c0.6-1.2,2-2.7,3-3.5s1.8-2.5,1.8-4
			c0-1.7,0.7-2.5,1.8-2.5c1.9,0,5.6-2.9,5.6-4.5c0-0.5,1.2-1.9,2.6-3c1.5-1.2,2.6-2.8,2.6-3.8c0-1.1,1.1-2.2,2.4-2.8
			c1.3-0.7,2.4-2,2.6-3.2s1.4-2.6,2.6-3.2c1.4-0.6,2.4-2.1,2.6-3.8c0.3-2,1.1-2.9,2.2-2.9c2.6,0,4.3-2,4.3-5.4c0-2.4,0.5-3,2.9-3.3
			c2.2-0.3,3-1,3.2-3.2c0.3-2,1.1-2.9,2.2-2.9c2.2,0,4.3-2,4.3-4.2c0-0.9,1.1-2,2.4-2.6c1.4-0.6,2.4-2.1,2.6-3.8
			c0.2-2,1.1-3,2.6-3.2c1.7-0.3,2.4-1.3,2.6-3.2c0.2-1.9,1-2.9,2-2.9c1.9,0,5.6-2.9,5.6-4.5c0-0.5,1.2-1.9,2.6-3
			c1.5-1.2,2.6-3.1,2.6-4.5c0-1.8,0.7-2.6,2.4-2.8c2.1-0.4,2.3-0.9,2.3-6.6c0-5.5-0.4-6.4-2.3-7.3c-1.3-0.6-2.4-2-2.6-3.2
			c-0.2-1.3-1.3-2.2-2.6-2.4c-1.6-0.3-2.4-1.3-2.6-3.2c-0.2-2-1.1-3-2.6-3.2c-1.6-0.3-2.4-1.3-2.6-3.2c-0.2-1.5-1.3-3.2-2.4-3.8
			c-1.2-0.6-2.8-2.4-3.7-4.2c-1.1-2.1-2.4-3.4-4.4-3.6c-2.3-0.3-2.9-1-3.2-3.7c-0.2-2.3-1.1-3.7-2.6-4.4c-1.4-0.6-2.4-1.7-2.4-2.4
			s-1.1-2.4-2.4-3.7c-1.3-1.4-3.2-3.7-4.2-5.3s-2.5-2.8-3.4-2.8s-1.6-0.9-1.6-1.8c0-2-2.9-5.6-4.8-5.6c-0.8,0-1.5-1.2-1.7-2.3
			c-0.2-1.4-1.3-2.8-2.4-3.4c-1.2-0.6-2.8-2.4-3.7-4.2c-1-1.9-2.4-3.4-3.8-3.6c-1.6-0.3-2.4-1.3-2.6-3.2c-0.2-2-1.1-2.9-2.6-3.2
			s-2.4-1.3-2.6-3.2c-0.2-1.5-1.3-3.2-2.4-3.8c-1.2-0.6-2.8-2.4-3.7-4.2c-1-2-2.4-3.4-3.8-3.6c-1.8-0.3-2.4-1.1-2.4-3
			c0-1.7-0.8-2.9-1.9-3.2c-1.1-0.2-2.3-1.9-3-3.6c-1-2.2-1.9-3-3.8-3c-2.3,0-2.7-0.4-2.7-3c0-1.9-0.9-3.7-2-4.5s-2.2-2.4-2.6-3.7
			c-0.4-1.3-2-3.5-3.8-5c-1.6-1.5-3-3-3-3.6c0-0.7-1.3-2.1-2.8-3.6c-1.7-1.3-3.5-3.5-4.1-4.6c-0.4-0.7-1.1-1.3-2-1.7
			c-0.5-3.4-0.5-11.3-0.5-30.9V236h16.4c9.2,0,13.6,0.2,15.5,0.7c0.6,0.9,1.3,1.8,2.1,2.7c2,2,3.7,4.2,3.7,4.5
			c0.1,1.6,8.3,9.6,9.8,9.6c1,0,1.8,1.1,2,2.4c0.3,1.6,1.3,2.4,3.2,2.6c2.3,0.3,2.9,1,3.2,3.7c0.2,2.3,1.1,3.7,2.6,4.4
			c1.3,0.6,2.4,2,2.6,3.2c0.2,1.3,1.3,2.5,2.7,3.2c1.3,0.6,2.3,1.8,2.3,2.6c0,2.2,2,4.2,4.3,4.2c1.3,0,2,1,2.2,2.9
			c0.2,1.6,1.3,3.2,2.7,3.8c1.3,0.6,2.3,1.7,2.3,2.5c0,1.9,4.1,6.4,6,6.4c0.8,0,1.5,1.1,1.7,2.4c0.2,1.5,1.2,2.4,2.6,2.6
			c1.6,0.3,2.4,1.3,2.6,3.2c0.2,1.6,1.3,3.2,2.7,3.8c1.3,0.6,2.3,1.7,2.3,2.5c0,1.9,3,5.4,4.8,5.4c0.8,0,1.5,1.1,1.7,2.4
			c0.2,1.5,1.2,2.4,2.7,2.6c1.6,0.2,2.3,1.1,2.3,2.5c0,2.5,2.8,6.1,4.8,6.1c0.8,0,1.5,1.1,1.7,2.4s1.3,2.7,2.7,3.4
			c1.3,0.6,2.3,1.8,2.3,2.6c0,2.4,2,4.2,4.8,4.2c1.9,0,2.4,0.7,2.7,3.5c0.2,2.3,1.1,3.7,2.7,4.4c1.3,0.6,2.3,1.7,2.3,2.5
			c0,1.9,3,5.4,4.8,5.4c0.8,0,1.5,1.1,1.7,2.4c0.2,1.5,1.2,2.4,2.7,2.6c1.7,0.2,2.3,1.1,2.3,2.8c0,1.4,1.1,3.4,2.4,4.4
			c1.3,1.2,2.8,3,3.5,4c0.7,1.3,2.1,2.5,3.4,3.2c1.3,0.6,2.3,1.7,2.3,2.6s1.1,2.4,2.4,3.8c2.4,2.5,8,3.2,9.7,1.3
			c0.7-0.8,1.3-2.5,1.3-4.1c0-2.4,0.5-3,2.9-3.3c2-0.2,3-1,3.2-2.6c0.3-1.4,0.9-2.4,1.5-2.4c2.1,0,5.1-3.5,5.1-6.1
			c0-1.6,0.7-2.4,1.9-2.4s2.5-0.5,3.2-1.3s1.3-2.1,1.3-3.2s0.5-1.9,1.3-1.9c2.1,0,5.1-3.4,5.1-6.1c0-1.6,0.7-2.4,1.9-2.4
			c2.4,0,4.4-2,4.4-4.3c0-1,1-2,2-2.3c1.2-0.3,2-1.4,2-2.5s1.1-2.3,2.4-2.9c1.4-0.6,2.4-2.1,2.6-3.8c0.2-2,1.1-3,2.6-3.2
			s2.4-1.2,2.6-2.6c0.3-1.4,0.9-2.4,1.5-2.4c2.1,0,5.1-3.5,5.1-6.1c0-1.6,0.7-2.4,1.9-2.4c2.4,0,4.4-2,4.4-4.3c0-1,1-2,2-2.3
			c1.5-0.4,2-1.4,2-3.8c0-2.7,0.5-3.3,2.4-3.3c3,0,5-1.8,5-4.4c0-1.1,0.5-1.9,1.3-1.9c1.9,0,5.1-3.3,5.1-5.2c0-1,1.1-2.1,2.4-2.7
			c1.3-0.7,2.4-2,2.6-3.2c0.2-1.3,1.4-2.6,2.6-3.2c1.4-0.6,2.4-2.1,2.6-3.8c0.3-2,1.1-2.9,2.2-2.9c2.5,0,4.3-2.1,4.3-5
			c0-1.6,0.7-2.4,1.9-2.4c2.3,0,4.4-2,4.4-4.2c0-0.9,1.1-2,2.4-2.6c1.3-0.7,2.4-2.1,2.6-3.4c0.2-1.4,1-2.4,1.6-2.4
			c0.7,0,3.4-2.3,5.9-4.7c1.1-0.6,2-1.5,2.3-2.3c1.1-1.2,1.9-2,2-2.5c0.5-0.3,0.9-1,1.2-1.7c0.6-0.7,1.4-1.5,2.2-2.3
			c0.4-0.4,0.8-0.8,1.1-1.2c0.8-0.5,1.7-1.2,2.2-2c2.1-2.6,2.1-2.7,17.5-2.4l15.5,0.3V266c0,23.3-0.3,32.8-1.7,35.9
			c-0.4,0.3-0.7,0.7-0.9,1.2c-0.2,0.2-0.5,0.2-0.8,0.2c-0.9,0-1.9,0.9-2.2,1.9c-0.2,0.8-1,2-1.7,2.9c-1.6,1.4-3.1,3.1-3.1,3.7l0,0
			c-0.8,1-1.5,1.9-2,2.5c-0.4,0.5-0.9,1-1.4,1.5c-0.3,0.4-0.6,0.7-0.9,1.1c-0.1,0-0.1,0-0.2,0c-0.9,0-1.4,0.8-1.6,2.6
			c-0.6,1-1,2-1.1,2.6c-0.4,1.8-1.3,2.9-2.3,2.9c-2.2,0-4.3,2-4.3,4.2c0,0.9-1.2,2-2.3,2.6c-1.3,0.7-2.5,2-2.7,3.2s-1.4,2.6-2.6,3.2
			c-1.4,0.7-2.4,2.2-2.6,4c-0.2,2-1,2.8-2.5,2.8c-1.4,0-2.5,1.2-3.3,3.2c-0.7,1.8-1.8,3.2-2.5,3.2c-0.8,0-2.1,1.3-3.2,2.9
			c-1.1,1.5-3,3.7-4.2,4.7c-1.4,1.1-2.4,2.8-2.4,3.8s-1.1,2.1-2.2,2.4c-1.3,0.3-2.6,2-3.3,3.7c-0.7,1.7-2.2,3.5-3.4,4
			c-1.3,0.5-2.3,1.9-2.5,3c-0.2,1.3-1.4,2.6-2.6,3.2c-1.3,0.7-2.7,2.6-3.4,4.5c-0.6,2.1-1.6,3.4-2.8,3.4c-1.1,0-2.6,1.3-3.7,2.9
			c-1.1,1.5-3,3.7-4.2,4.7c-1.4,1.2-2.4,2.9-2.4,4s-0.8,2-1.6,2c-1,0-2,0.8-2.3,1.7c-0.6,1.6-2.7,4-8.3,9.9
			c-1.4,1.5-2.5,3.5-2.5,4.3c0,1-1.1,2-2.2,2.3c-1.2,0.3-2.6,2-3.4,3.8c-0.7,1.8-1.7,3.3-2.3,3.3c-1.6,0-5.9,5-5.9,6.7
			c0,0.8-1,1.7-2,2c-1.7,0.4-2,1.5-2,5.5c0,3.9,0.4,5.1,2,5.5c1.3,0.3,2.2,1.6,2.4,2.8c0.3,1.5,1.3,2.3,3.2,2.5
			c2.3,0.3,2.9,1,3.2,3.7c0.2,2.5,0.9,3.5,2.7,3.7c1.7,0.3,2.3,1.1,2.3,2.9c0,1.3,1,3,2,3.8c1.2,0.8,2,1.8,2,2.3c0,1.8,4.5,6,6.4,6
			c1.3,0,1.9,0.8,1.9,2.6c0,1.4,1,3.1,2,3.8c1.2,0.8,2,1.8,2,2.3c0,1.8,3.5,4.8,5.5,4.8c1.3,0,1.9,0.8,1.9,2.3
			c0,2.5,2.8,6.1,4.8,6.1c0.8,0,1.5,1.1,1.7,2.4s1.4,2.7,2.6,3.4c1.3,0.6,2.4,2,2.6,3.2c0.3,1.4,1.3,2.2,3.2,2.4
			c2.3,0.3,2.9,1,3.2,3.7c0.2,2.3,1.1,3.7,2.6,4.4c1.3,0.6,2.4,2,2.6,3.2c0.2,1.3,1.3,2.5,2.7,3.2c1.3,0.6,2.3,1.8,2.3,2.6
			c0,2.2,2,4.2,4.4,4.2c1.3,0,1.9,0.9,1.9,2.4c0,3,1.8,5,4.4,5c1.3,0,1.9,0.9,1.9,2.6c0,1.4,1,3.1,2,3.8c1.2,0.8,2,1.8,2,2.3
			c0,2,3.6,4.8,6.1,4.8c2,0,2.4,0.6,2.4,3.2c0,2.4,0.4,3.2,2,3.2c1.4,0,2,0.8,2,2.4c0,1.3,1,3,2,3.8l0,0c0.2,1.5,0.8,2.4,2,3
			l0.1,0.1c0.1,0.7,0.7,1.5,1.5,1.8c0.1,0,0.2,0.1,0.3,0.1c0.1,0.3,0.2,0.5,0.2,0.7c0,0.8,0.7,1.5,1.5,1.6c0,0.1,0,0.1,0.1,0.2
			c0.3,0.9,1,1.8,1.8,2c0.2,0.8,0.8,1.5,1.6,1.8c0.4,0.2,0.7,0.4,1,0.7c0.2,0.4,0.4,0.7,0.6,1c0,0.1,0,0.2,0,0.3
			c0,0.8,1.5,2.6,3.3,4.4l3.3,3L488.6,598.1z"/>
		<g id="l661yZM2hVIwYqUrR6rG3pk">
			<g>
				<path id="p7MCOlGIQ" class="st3" d="M159.9,219c-1-0.9-1.7-2.4-1.7-3.4c0-2,2.8-6.6,5-7.9c1.5-1,1.8-3.7,0.8-6.4
					c-0.4-1.2-2-1.7-5.1-1.7c-7.1,0-12.1-6.4-9-12.1c0.8-1.4,1-3,0.6-3.8s-10.8-17.5-23-37.1l-22.3-35.7l-9.9-8.5
					c-9.3-7.9-19.6-20-18.8-22.1c0.1-0.4,2.7-2.3,5.7-4l5.4-3.2l2.3,3.3c2.4,3.5,4.7,3.8,7.8,1.6c1.7-1.3,1.9-2.3,1.4-6.3l-0.8-4.8
					l4.5-2l4.4-2l2.4,3c2.7,3.5,4,3.8,8.1,1.9c2.5-1.2,2.7-1.7,2.2-5.2l-0.7-3.8L124,58c2.7-0.3,6.4-0.7,8.5-0.7
					c3.5,0,3.6,0.2,3.6,4c0,2-1.4,6.8-3.2,10.5c-2.5,5.5-3.2,8.1-3.2,14.2c0,6.7,0.4,8.2,4.4,15.7c3,5.9,5.1,8.3,6.3,8.3
					c1.1,0,4.7-1.5,8.2-3.2s6.7-3.2,7.2-3.2c0.6,0,1.8,2,2.8,4.7c1,2.6,2,4.7,2.2,4.7s2.5-0.6,5.2-1.2l4.6-1.2l-0.7-4.4
					c-0.3-2.3-0.8-4.8-1-5.6c-0.4-1.4,0.4-1.7,9.4-3.5c7.1-1.5,8-0.9,8,5.7c0,3.7,0.2,4,2.4,3.4c1.3-0.3,3.2-0.7,4.3-0.7
					c1.7,0,1.9-0.7,1.5-5.7l-0.6-5.9l9.5-2.2c5.2-1.2,9.8-1.9,10.3-1.5c0.6,0.3,1,2.4,1,4.7c0,4.6,0,4.6,5,2.8
					c3.2-1.2,3.5-1.7,3.5-5.7v-4.4l5.4-0.8L234,86l-0.8-6c-0.4-3.2-1.4-6.4-2-7.1c-0.8-0.8-1.7-4.6-2-8.6l-0.8-7.1l-8.9-8.7
					c-11.7-11.4-11.6-14,0.3-15.6c4.8-0.7,5.5-0.6,6.1,1.5c0.6,1.8,1.6,2.2,4.8,2.2c3.8,0,4.1-0.2,4.1-3.2c0-2.6,0.4-3.2,2.5-3.2
					c1.4,0,3.8-0.3,5.7-0.7c2.6-0.6,3.3-0.2,3.8,1.6c1.2,3.6,9,2.7,9-1c0-2,1.2-2.6,8.8-3.7c4.5-0.7,5-0.6,5,1.6
					c0,3.2,4.6,2.5,5.1-0.7c0.3-1.9,1.4-2.4,6.8-3.3c4.7-0.9,6.7-0.8,7.2,0.1c2,2.9,0.6,7.7-5.1,17l-6.1,9.9l0.8,8.3
					c0.6,5.5,0.4,8.6-0.3,9c-0.7,0.3-1.2,2.7-1.2,5.4v4.7l9.5-0.3c8.9-0.3,9.6-0.2,10,1.8c1.5,7.9,1.6,7.9,4.7,7.9
					c3,0,3.2-0.1,3.2-5.3v-5.3h6.6c3.6,0,7.6-0.3,9-0.7c2.2-0.7,2.3-0.4,2.3,5.3c0,5.9,0,6,3,6s3.2-0.2,3.5-5.5
					c0.2-4.5,0.7-5.6,2.2-5.5c1,0,5.2,0.1,9.1,0.2l7.3,0.2v5.3c0,5.1,0.1,5.3,3,5.3c2.7,0,3.2-0.4,3.8-4.8l1-5l9.8,0.2l9.7,0.2v-4.7
					c0-2.9-0.6-4.8-1.2-4.8c-1,0-1.1-2.6-0.7-9.1l0.7-9.1l-5.7-9.3c-4.8-7.7-5.9-10.1-5.9-14.2s0.3-4.7,1.9-4.2
					c1,0.2,4.2,0.9,7.2,1.2c4.5,0.7,5.5,1.1,5.9,2.9c0.4,3.8,5.1,4.4,5.1,1.3c0-2,0.4-2.2,5.1-1.6c7.4,1.1,8.7,1.6,8.7,3.7
					c0,3.7,7.8,4.5,8.8,1c0.6-1.9,1.2-2.2,4-1.6c1.8,0.3,4.4,0.7,5.9,0.7c2,0,2.5,0.6,2.5,3.2c0,2.9,0.2,3.2,4.2,3.2
					c3.6,0,4.2-0.3,4.2-2.2c0-2,0.3-2.2,6.1-1.5c8,1,8.8,1.4,8.8,4.5c0,2-2.2,5.1-8.3,11.3l-8.3,8.5l-1.3,7.9
					c-0.7,4.7-1.8,8.2-2.6,8.8c-1.1,0.6-1.6,2.6-1.6,6.4v5.6l5.1,1c4.8,1,5,1.1,5.3,5.4c0.3,3.8,0.8,4.5,3.6,5.5
					c4.8,1.7,5.1,1.6,5.1-3.6c0-5.4,0-5.4,8.3-3.3c3.3,0.9,7.1,1.8,8.9,2c2.6,0.7,2.8,1.1,2.8,6.3c0,5.5,0.1,5.7,3.3,6.3
					c5.2,1,5.2,1,5.2-4.6c0-6.1-0.1-6.1,10-3.8l6.3,1.3l-0.2,6l-0.3,5.9l4.1,1.2c5.9,1.8,6,1.7,7.4-3c0.9-2.3,1.8-4.4,2-4.6
					c0.4-0.3,4.1,1.1,8.2,2.8c4,1.8,8.1,2.9,9,2.6c0.9-0.3,3.5-4.2,6-8.7c5.7-10.5,6.1-17.7,1.2-28.4c-1.8-3.8-3.2-8.9-3.2-11.2
					c0-4.6,0.4-4.7,11.3-3.5l5.4,0.8l-0.6,3.6c-1.1,6.6,6.2,9.1,10.2,3.5l2.2-3.2L549,65c2.4,1.3,4.5,2.3,4.6,2.4s-0.2,2-0.9,4.3
					c-1.1,3.7-1,4.3,1.2,6.1c2.9,2.4,6,2.4,7.2,0.1c2.8-5.1,2.7-5,9-1.5c3.3,1.9,6,3.7,6,3.8c0,0.3-2.2,3.7-4.8,7.3
					c-2.8,3.8-9,10.1-14.2,14.4l-9.4,7.7l-23.4,37.1L501.1,184l1.4,3.8c2,6.4-1.3,10.7-9.4,11.6c-4.3,0.4-4.8,0.9-5.2,3.5
					c-0.2,2,0.6,4,2.8,6.6c1.8,2,3.3,4.5,3.3,5.6c0,2.6-3.4,5.4-6.4,5.4c-1.5,0-11.8-3-23.2-6.8c-32.6-10.8-62-17.3-94.4-20.8
					c-20-2-73.4-1.8-92.6,0.6c-32.4,4-59.4,10.2-91.3,20.9C166.1,221,162.5,221.7,159.9,219z M185.4,208.3
					c46.4-15.5,89.3-22.3,139.7-22.3c53.7,0,101.4,8,149.7,25.3c6.4,2.3,12.2,4.2,12.5,4.2c2,0-3.3-4-8.7-6.4
					c-21-9.5-66.7-20-107.4-24.7c-24.1-2.8-69.6-2.6-95.3,0.6c-43.9,5.3-102.4,20.3-109.5,28.2c-2.3,2.5-2.3,2.6-0.4,2
					C167.3,214.5,176,211.6,185.4,208.3z M178.2,185.9c27.1-10.5,60.6-18.7,94.7-23.4c14.9-2,22.2-2.3,52.1-2.4
					c36.2,0,43.8,0.6,72.1,5.3c28.3,4.7,59.8,13.6,85.8,24.1c10,4.1,11.7,4.5,13.2,3.2c1-1,1.2-1.8,0.6-2.4
					c-0.7-0.4-7.9-3.3-16.4-6.3c-94-33.4-171.1-37.9-258.9-15.2c-19.1,4.8-61.9,18.7-65.1,21.1c-1.5,1.1-1.5,1.5-0.3,2.9
					c1.3,1.5,1.7,1.5,5.2,0C163.4,191.7,171,188.7,178.2,185.9z M229.6,182.2c31-6.3,59.3-9,96.1-9c37.6,0,63.7,2.4,96.5,9
					c7.1,1.4,13.2,2.4,13.4,2.2c0.3-0.2-4.6-1.7-10.8-3.2c-59.6-14.6-109-16.7-165-7c-13.3,2.3-43.7,9.4-43.7,10.1
					C216.1,185,215.5,185,229.6,182.2z M456.1,157.3c0-1.9-1.8-0.8-3,2c-1.4,2.9-1.4,2.9,0.9,1C455.1,159.1,456.1,157.8,456.1,157.3
					z M198.2,158.5c-0.7-1.2-1.7-2-2.3-2c-0.7,0-0.3,1,0.8,2c1.1,1.1,2,2,2.3,2C199.2,160.6,198.8,159.7,198.2,158.5z M217.6,158.5
					c0.6-0.4,0.6-2.4,0.2-4.5c-0.8-3.7-0.8-3.7-4.5-2.6c-5.6,1.5-5.6,1.6-3.7,5.6c1.5,3.2,2,3.6,4.4,2.9
					C215.4,159.6,217.1,158.9,217.6,158.5z M441.8,157.5c2.2-4.3,2-4.7-2.6-6.1c-4.1-1.1-4.2-1-4.8,1.7c-0.3,1.5-0.8,3.4-1,4
					c-0.3,0.8,1.1,1.8,2.9,2.3c1.9,0.6,3.5,1.1,3.6,1.1S441,159.3,441.8,157.5z M229.9,151.6c0-3.4-0.4-4.6-1.3-4.3
					c-0.9,0.2-1.3,1.8-1.1,3.5C228.2,157.8,229.9,158.4,229.9,151.6z M424.5,151.8c0.4-2,0.7-3.8,0.6-3.8c-0.2,0-1.1-0.3-2-0.7
					c-1.4-0.6-1.7,0.1-1.7,3.5C421.3,157.6,423.1,158.1,424.5,151.8z M172.3,154c1.7-1.2,1.7-1.6,0.3-2.6c-1.7-1.4-7-0.8-7,1
					c0,0.9,3,2.9,4.3,3C170.2,155.4,171.3,154.8,172.3,154z M484.9,153.3c1.7-1.9,1.7-2-1-2.6c-1.7-0.4-3.5-0.2-4.3,0.6
					c-2.5,2-1.8,3,2.8,4C482.8,155.3,484,154.5,484.9,153.3z M245.6,148.4c0-4.8-0.1-5-3.8-4c-2,0.6-2.4,1.4-2.4,5.1
					c0,4.4,0.1,4.4,3.2,4C245.4,153,245.6,152.7,245.6,148.4z M412.7,145.3c-0.2-0.2-1.6-0.7-3.3-1.1c-2.7-0.8-2.8-0.7-2.8,4
					c0,4.4,0.2,4.8,2.9,5.2c2.6,0.3,2.8,0,3.2-3.8C412.8,147.5,412.8,145.5,412.7,145.3z M195.9,145.8c4.6-1.5,7.6-2.9,7.6-3.8
					c0-1.7-1-1.5-13,2c-6.1,1.8-7,2.3-6,3.7c0.8,0.9,1.8,1.4,2.4,1.2C187.7,148.4,191.7,147.2,195.9,145.8z M466.9,145.9
					c-0.4-0.4-4.6-1.8-9.1-3c-6.7-1.9-8.6-2-9.1-1c-1.2,1.9,15.7,7.3,17.8,5.9C467.1,147.1,467.3,146.3,466.9,145.9z M296,142
					c-2.6-6.1-2.2-5.9-5.5-5.1c-2.6,0.8-2.6,0.8-1.1,5.4c1.5,4.2,1.9,4.6,5.2,4.6h3.5L296,142z M362.4,142.7c1-3.5,1-4.6-0.2-5.3
					c-2.5-1.7-4.2-0.4-6.2,4.6l-2,5h3.7C361,147,361.4,146.6,362.4,142.7z M310.8,140.6c0-5-0.2-5.3-2.6-5.3c-1.5,0-2.6,0.3-2.6,0.8
					c0,1.9,3.6,9.8,4.3,9.8C310.4,145.9,310.8,143.6,310.8,140.6z M331.8,140.6v-5.3h-6.3h-6.3v5.3v5.3h6.3h6.3V140.6z M344.4,142
					c0.9-2.2,1.7-4.6,1.9-5.3c0.3-0.9-0.4-1.4-2.2-1.4c-2.6,0-2.7,0.3-2.7,5.3C341.3,146.9,342.5,147.4,344.4,142z M148.7,141.1
					c-1.5-1.8-4.2-2-4.2-0.7c0,0.9,1.9,1.7,4.6,2C149.7,142.7,149.4,142,148.7,141.1z M506.7,140.2c-0.9-0.9-1.7-0.8-2.8,0.6
					c-1.5,1.5-1.5,1.6,1.2,1.1C507,141.6,507.5,141,506.7,140.2z M224.6,138c2.8-0.8,4.8-1.9,5.1-2.8c0.3-1.5-0.7-1.5-8.1,0.4
					c-6.2,1.6-8.2,2.5-7.8,3.6c0.3,1.1,1.4,1.3,3.4,0.8C218.5,139.6,221.9,138.6,224.6,138z M438.5,139.2c0.4-1.1-1.3-1.9-6.4-3.2
					c-3.8-1-7.9-2-9-2.3c-1.5-0.6-1.9-0.1-1.6,1.3c0.2,1.6,7.3,4.1,15.7,5.6C437.6,140.5,438.2,140.1,438.5,139.2z M183.3,135.3
					c2.7-1.1,2.7-1.3,0.8-5.2l-1.6-2.9l-6.8,2.1l-6.8,2.2l2.8,2.9C174.5,137.6,176.7,137.7,183.3,135.3z M480.6,134.6l2.8-2.9
					l-5.6-1.8c-3.2-1-6.4-1.8-7.3-1.8c-2.3,0-5.6,6.2-3.7,6.7c0.8,0.3,2.8,1,4.5,1.5C476.3,137.9,477.6,137.6,480.6,134.6z
					 M147.5,127.9c1.3,0-7.8-7.2-9-7.3c-1.5,0-10.2,4.3-13.3,6.6c-2,1.5-2,1.6,0.2,4.7l2.3,3.2l9.6-3.6
					C142.7,129.6,147.2,127.9,147.5,127.9z M527.8,129.9c0.9-1.6-0.2-2.5-7.2-6.1l-8.3-4.2l-4,4.1c-2.9,3-3.7,4.3-2.5,4.6
					c0.9,0.3,5.3,2,9.9,3.7C524.6,135.5,524.7,135.4,527.8,129.9z M244.9,133.7c0.3-0.3,0.3-1.3,0.1-1.9c-0.8-1.8-5.7-0.9-5.7,1.1
					C239.2,134.4,243.6,135,244.9,133.7z M412.8,132.8c0-0.8-1.3-1.7-2.8-2c-3.5-0.7-4-0.3-3.2,1.9
					C407.8,134.8,412.8,134.9,412.8,132.8z M204.9,129.4l7-1.8l-0.7-3.8c-0.4-2-0.9-3.8-1-4c-0.2-0.2-4.1,0.7-8.8,1.9l-8.6,2.3
					l1.7,3.6c1,2,2,3.6,2.3,3.6S200.9,130.3,204.9,129.4z M456.7,127.9c1.4-2.6,1.4-3.5,0.3-4.2c-1.8-1.1-14.7-4.3-15.3-3.8
					c-0.2,0.3-0.7,2-1.1,4.1l-0.6,3.7l6.1,1.7C454.7,131.6,454.7,131.6,456.7,127.9z M289.6,126.2c-0.2-1.2-1.5-2-3.2-2.2
					c-2.3-0.3-2.7,0-2.2,1.8C284.9,128.6,290.1,128.9,289.6,126.2z M367.5,125.7c0.6-2.7-3.7-2.4-5.1,0.3c-1.2,2-1,2,1.8,1.8
					C366,127.6,367.2,126.8,367.5,125.7z M342.4,124.3v-2.6H326c-15.6,0-16.4,0.1-16.4,2s0.9,2,16.1,2.4c8.8,0.1,16.1,0.4,16.4,0.6
					C342.3,126.9,342.4,125.8,342.4,124.3z M226.5,124.2c3-0.7,3.3-1,3.3-5.2v-4.5l-4.4,1.2c-2.5,0.6-4.6,1.2-4.8,1.3
					c-0.7,0.6,1.1,7.9,1.9,7.9C222.9,124.8,224.8,124.5,226.5,124.2z M430.8,123.1c0-1.1,0.3-2.9,0.7-4.1c0.6-1.9,0-2.3-3.3-2.9
					c-2-0.4-4.5-1.1-5.4-1.4c-1.3-0.6-1.6,0.3-1.3,4c0.3,3.8,0.8,4.6,2.9,5.3C429.1,125.1,430.8,124.9,430.8,123.1z M212.7,108.4
					l17.1-4.1l-0.2-5.9c-0.1-4.8-0.2-5.2-0.6-1.6c-0.4,4-0.8,4.3-6.2,6.6c-3.2,1.3-7.3,2.3-9.4,2.3c-3.7,0-3.7,0-3.7-4.6v-4.5
					l-4.7,1.1l-4.7,1.1v5.3v5.6l-4.6,1.2c-2.6,0.7-6.8,1.2-9.5,1.2h-4.8v-4.7c0-5-0.2-5.1-3.7-4.1c-1.8,0.4-2,1.3-1.8,6.1l0.4,5.6
					l-5.9,1.8c-3,1-7.6,1.8-10,1.8c-3.8,0-4.4-0.3-5.6-3.6c-1.2-3.2-1.6-3.5-3.4-2.5s-1.7,1.4,2.9,6.1l4.8,5l18.2-5.5
					C187.4,115,203.2,110.7,212.7,108.4z M497.6,118.7c4.8-5,5-5.3,2.9-6.3c-1.9-1.1-2.3-0.8-3.5,2.5c-1.3,3.4-1.7,3.7-5.7,3.7
					c-2.4,0-6.8-0.8-9.8-1.6l-5.5-1.7v-5.7c0-3.2-0.4-5.9-1-5.9s-1.7-0.3-2.6-0.7c-1.3-0.6-1.7,0.1-1.7,2.5c0,5.7-0.9,6.4-6.2,6.4
					c-2.6,0-6.6-0.6-8.8-1.2c-4-1.1-4-1.1-4-6.6s-0.1-5.7-3.3-6.3c-5.5-1.1-6-0.9-6.6,3.6c-0.7,3.8-1,4.2-4,4.2c-1.9,0-6-1.1-9-2.3
					c-5.4-2.2-5.6-2.4-5.6-6.3c0-2.2-0.4-4-1.1-4c-0.6,0-1.1,2.6-1.1,5.9c0,5,0.3,5.9,2,5.9c3.4,0,42.3,10.2,55.3,14.4
					c6.9,2.3,12.9,4.2,13.2,4.3C492.2,123.8,494.7,121.5,497.6,118.7z M244.5,116.3c0-3.7-0.3-4.1-2.6-4.1c-2.4,0-2.6,0.4-2.6,4.6
					c0,4.3,0.1,4.5,2.6,4C244.2,120.4,244.5,119.8,244.5,116.3z M412.8,117c0-4.3-0.2-4.7-2.6-4.7c-2.3,0-2.6,0.4-2.6,4.1
					c0,4,0.6,4.6,4.5,5.3C412.7,121.6,412.8,119.6,412.8,117z M119.3,117.4c1.3-0.9,1.3-1.3,0-3.8c-1.8-3.2-3.8-4.3-5.4-2.8
					c-0.7,0.7-0.4,2.2,0.9,4.3C116.8,118.9,116.9,119,119.3,117.4z M537.2,114.5c2-3.2,2-3.4,0.3-4.1c-2.5-1-7.1,4.7-5.5,6.7
					C533.6,119.2,534.8,118.6,537.2,114.5z M397.8,110.6c-0.2-0.3-3.5-1-7-1.6c-5.3-0.9-6.8-0.8-7.4,0.3c-1.7,2.5-1,2.9,4.6,2.9
					c3.2,0,6.4,0.7,7.7,1.5c1.8,1.4,2,1.4,2.3-0.7C398.2,111.8,398.2,110.8,397.8,110.6z M263.8,112.8c4.5-0.1,6-0.4,5.5-1.5
					c-0.3-0.9-0.6-1.9-0.6-2.5s-1.4-0.9-3.4-0.6c-1.9,0.3-5.5,1-7.9,1.3c-3.6,0.6-4.5,1.2-4.5,2.8c0,1.8,0.4,2,2.4,1.3
					C256.6,113.3,260.4,112.8,263.8,112.8z M284,112.5c-0.4-1.1-1.1-2.7-1.3-3.7c-0.6-2-3.5-2.6-3.5-1c0,2.6,2.2,6.4,3.8,6.4
					C284.2,114.4,284.6,113.8,284,112.5z M371.2,113.6c0.2-0.6,0.8-2,1.2-3.7c1-4.2-2-3.8-3.5,0.3c-0.7,1.9-1.2,3.6-1.2,3.7
					C367.7,114.6,370.7,114.4,371.2,113.6z M307.5,112.6c1.8-0.6,2.3-1.5,2.3-4.2c0-3.5-0.1-3.6-3.8-3.5c-2.2,0-6.1,0.4-8.5,0.8
					l-4.3,0.8l1.4,3.5c1.4,3,1.9,3.4,6.1,3.4C303,113.3,306.1,112.9,307.5,112.6z M357.4,109.9l1.5-3.5l-7.2-0.9
					c-8.9-1.2-10.3-0.7-10.3,3.4c0,3.5,1.1,3.8,9.7,4.2C355.8,113.3,356.2,113,357.4,109.9z M333,108.5v-3.7h-6.8h-6.8v3.7v3.7h6.8
					h6.8V108.5z M130.5,107.4c-1.1-1.5-2-2.4-2.4-2.2c-0.2,0.3,0.3,1.8,1.4,3.3c1,1.6,2,2.5,2.3,2.3
					C131.9,110.4,131.4,109,130.5,107.4z M523.5,106.8c0.6-1.1,0.7-1.9,0.1-1.9c-0.6,0-1.5,1.2-2,2.6
					C519.2,112.6,520.4,112,523.5,106.8z M241.8,102.1c1.2-0.4,1.7-2,1.7-5.4c0-3.8-0.3-4.6-1.7-4.1c-1,0.3-1.9,0.7-2,0.7
					c-0.2,0-0.4,2-0.4,4.7C239.2,103.1,239.2,103.1,241.8,102.1z M412.8,98.1c0-4.4-1.1-6-4.3-6c-1.5,0-1.2,9.3,0.4,9.8
					C412.2,103.4,412.8,102.7,412.8,98.1z M263.1,99c2.2-0.4,2.2-0.7,1-5c-1.3-4.3-1.4-4.4-5.5-4c-5.6,0.4-5.7,0.7-5.7,6v4.6l4-0.6
					C259,99.6,261.9,99.3,263.1,99z M399.3,95.9c0-4-0.3-4.7-2.3-5.2c-1.4-0.3-3.7-0.8-5.2-1.1c-2.5-0.6-2.9-0.2-3.8,3.8
					c-0.7,2.4-1,4.6-0.7,5c0.4,0.4,6.9,1.7,10.7,2C398.8,100.6,399.3,99.1,399.3,95.9z M105.9,95.8c3-1.6,8.3-3.8,11.7-5.1
					c5.4-2,6.3-2.7,6.6-5.2l0.3-2.8l-4.4,1.6c-2.4,0.9-8.9,3.6-14.2,6c-9.5,4.2-9.8,4.4-8.1,6.3c1,1.2,2,2,2.2,2
					C100.3,98.6,102.8,97.2,105.9,95.8z M555,95.4c0-0.9-12.5-6.9-21.8-10.5l-5.6-2.2v2.9c0,2.6,0.7,3.2,5.6,4.7
					c2.9,1,8.3,3.2,11.7,4.8c4.5,2,6.8,2.7,8.2,2C554.2,96.7,555,96,555,95.4z M275.5,91.8c-2.9-7-2.7-4,0.2,4.5
					c0.3,0.9,0.8,1.1,1,0.4C277,96.2,276.6,94,275.5,91.8z M377.1,93.2c1.6-6,0.9-6.1-1.3-0.3c-0.9,2.5-1.3,4.6-0.8,4.6
					C375.6,97.5,376.5,95.6,377.1,93.2z M365.2,91l2-5.6l-3-0.3c-3.8-0.4-4-0.3-4.7,5l-0.7,4.3h-8.2h-8.3v-5.3v-5.3h-4.2H334v5.3
					v5.4l-8.1-0.3l-8.2-0.3l-0.3-5c-0.3-5-0.4-5.1-4-5.1h-3.6v5.3v5.3h-8.2h-8.5l-0.8-4.7c-0.7-4.5-0.8-4.7-4.3-4.7
					c-2.5,0-3.6,0.4-3.2,1.4c0.3,0.7,1.4,3.3,2.3,5.9l1.8,4.4h37.2h37.1L365.2,91z M87.5,83.8c-0.8-1.3-1.7-2.2-2.2-2.2
					c-0.9,0-0.2,1.5,1.7,4C88.6,87.8,89.1,86.3,87.5,83.8z M566.9,81.7c-0.7-0.7-3.5,3.2-3.5,4.6c0,0.7,1,0,2-1.5
					C566.7,83.4,567.1,82,566.9,81.7z M243.5,80.7c0-1.4-0.8-2-2-2c-1.3,0-2,0.8-2,2c0,1.4,0.8,2,2,2
					C242.7,82.8,243.5,82,243.5,80.7z M412.8,80.7c0-1.4-0.8-2-2-2c-1.4,0-2,0.8-2,2c0,1.4,0.8,2,2,2
					C412.2,82.8,412.8,82,412.8,80.7z M258.6,80c1.8-0.7,2.3-3.6,0.8-3.6c-3.3,0-7.4,1.6-7.4,2.7C251.9,80.7,255.7,81.1,258.6,80z
					 M399.3,79.2c0-0.8-1.1-1.7-2.3-2c-3.8-1-5.1-0.8-5.1,0.9c0,1.7,1.6,2.5,5.1,2.6C398.2,80.7,399.3,80,399.3,79.2z M110.9,75.6
					c-0.9-0.2-2.7-1.7-4.1-3.2c-1.7-2-2.2-2.3-1.8-1c0.3,1.1,0.7,3,0.7,4.4c0,2.4,0.2,2.4,3.4,1.4C111.1,76.5,111.9,75.9,110.9,75.6
					z M546.5,74.7c0-3.8,0-4-1.7-1.6c-0.9,1.3-2.6,2.3-3.8,2.3c-1.8,0.1-1.7,0.3,1,1.6C546.4,79.1,546.6,79,546.5,74.7z M527.4,71.1
					c-1.2-0.7-1.9-2.3-1.9-4c0-2-0.7-3.2-2-3.6c-2-0.6-2-0.4-0.3,3.4c1.9,3.8,3.2,5.4,5,5.4C528.8,72.1,528.3,71.6,527.4,71.1z
					 M128.8,66.9c1.9-3.8,2-4.3,0.4-3.7c-1,0.3-2.2,0.7-2.7,0.7s-1,1.7-1,3.7s0.2,3.7,0.6,3.7C126.3,71.1,127.7,69.2,128.8,66.9z
					 M255.5,50.2c9.8-1.1,17.8-2,17.9-2.3c1.4-2,6.9-11.5,6.9-11.8c0-0.2-3.3-0.1-7.3,0.2c-6.2,0.6-7.4,0.3-8-1.2
					c-1-2.6-3.6-2-3.6,0.9c0,2.7-1,3-12.3,4.4c-6.3,0.7-6.6,0.6-6.6-1.6c0-1.2-0.4-2.2-1.1-2.2c-0.6,0-1.1,1.2-1.1,2.5
					c0,2.2-0.8,2.7-5.3,3.7c-2.9,0.7-6.8,1.2-8.8,1.2h-3.3l4.1,4.2C232,52.9,231.2,52.9,255.5,50.2z M424.9,48.1l3.8-4l-6.8-0.8
					c-9-1-10.1-1.4-10.1-4.4c0-1.4-0.4-2.5-1.1-2.5c-0.6,0-1.1,0.8-1.1,1.6c0,1.3-1.4,1.6-6.1,1.6c-3.4,0-7.9-0.3-10-0.7
					c-3.4-0.7-4-1.2-4-3.2c0-2.9-1.6-3.3-2.9-0.8c-0.9,1.4-2.2,1.6-8.5,1.1l-7.3-0.7l3.7,6.3c2,3.4,4,6.2,4.4,6.3
					c10.4,1.4,33.5,3.8,37,4C420.5,52.2,421.3,51.8,424.9,48.1z M370.5,31.7c-0.4-0.9-1.2-1.6-1.8-1.6c-0.6,0-0.7,0.8,0.2,2
					C370.4,34.5,371.5,34.3,370.5,31.7z"/>
			</g>
		</g>
		<g id="l1cncJJYvY7Nd3iLrWKPHBK">
			<g>
				<path id="p8yjBZboD" class="st4" d="M278.7,773.6c-93.2-8.5-100.3-8.9-164.5-9.3c-60.3-0.4-54.6,0.9-62.4-13.5
					c-2.6-4.8-8.1-14.1-12.1-20.4c-9-14.3-13-23.8-13.9-32.6c-0.6-6.1-0.3-7.2,1.9-10.5c3.5-5.1,9.6-7.9,17-7.9
					c7.3,0,12.1,1.8,15.7,6.1c3,3.6,3.5,5.5,4.5,16.4l0.8,7.2l4.3-0.6c2.4-0.2,9.9-1.4,16.6-2.6c18.5-3.4,42-4.8,66.3-4.1
					c23.2,0.8,27.1,1.1,63.6,6.4c44.2,6.4,55.6,7.3,110,7.2c51.3,0,63.5-0.8,98.1-5.9c38-5.5,44-6.2,57.5-7.3
					c17.4-1.5,55.8-0.7,71.7,1.6c6.1,0.9,15.5,2.5,21,3.7c5.4,1.2,10.2,2,10.6,1.7c0.4-0.2,1.1-4.6,1.5-9.7
					c0.6-6.3,1.5-10.3,2.8-12.6c4.5-7.2,18.4-10.2,26.8-5.7c8,4.2,7.8,3.8,7.8,17.3c0,6.6-0.4,12.3-1,12.5s-2.2,2.9-3.8,6.1
					c-1.6,3.2-5.6,10.1-9,15.2c-3.3,5.3-7.7,12.9-9.9,16.9c-2,4.1-5.6,9-7.6,11.1c-3.6,3.5-3.8,3.6-12.9,3.6
					c-5.1,0-33.3,0.3-62.9,0.8c-52.6,0.8-63.3,1.3-115.7,6.1c-34.6,3.3-67.8,5.3-83.2,5.2C311.2,776.1,293.3,775,278.7,773.6z
					 M329.8,766.3c0-2,0.6-3.7,1.1-3.7c0.8,0,1.1-3.4,0.9-9.1l-0.3-9.3l-3.8-0.3l-3.8-0.3l-0.8-6.8c-0.3-3.8-0.3-7.2,0.2-7.7
					c1.2-1.1,49.4-4.8,61.5-4.8c5,0,9.3-0.4,9.7-1.1c0.4-0.6,6.1-1.2,12.7-1.4l12-0.4l2.3,2.9c2,2.7,2.3,4,2,12.5s1.1,15.1,2.4,12.5
					c0.3-0.6,1.9-7.4,3.6-15.3l2.9-14.4h3.8h3.7l6.1,15.6c7.3,18.9,7.1,18.6,10.1,17.1c2-1.2,2-1.8,1.6-10.9
					c-0.8-12.5-1.4-16.6-2.5-16.6c-0.7,0-1.1-1.7-1.1-3.7v-3.7h7.8h7.8l2,6.1l2,6.1l1.3-6.4c1.2-6.3,1.3-6.4,5.2-7.1
					c2-0.3,5.7-0.7,7.9-0.7c3.7,0,3.8,0.2,3.8,3.5c0,1.9-0.6,4-1.2,4.6c-0.9,0.9-1,4.6-0.4,12.6l0.9,11.4l2.9-9.5
					c1.6-5.2,3.7-12.2,4.6-15.5c1.7-6.1,1.8-6.1,5.9-6.1s4,0.1,5.4,5.6l1.5,5.5l0.6-5.9l0.6-5.9l33.6,0.3c21,0.1,32.5-0.2,30.5-0.9
					c-8.1-2.3-30.2-5.4-48.2-6.4c-25.5-1.6-47.2-0.2-86.2,5.5c-45.1,6.6-55.8,7.4-102.6,8.1c-57.7,0.9-80.8-0.8-136.6-9
					c-35.8-5.3-58-6.4-85.9-4.3c-13.3,1.1-34.5,4.2-41.5,6.1c-3.2,0.9-3,1,1.5,1.6c6.1,0.8,8.9,3.6,9.6,9.9l0.6,5.1l2-7.6l2-7.7h3.8
					c2.8,0,4.1,0.6,4.4,1.9c0.4,1.4,0.6,1.2,0.7-0.6l0.1-2.4H123h22.6v3.6c0,2.2-0.7,3.8-1.6,4.2c-1.3,0.4-1.6,2.9-1.6,13.3
					c0,7.1,0.4,12.6,1,12.6c1.5,0,4.3-4.3,4.3-6.4c0-1.4,0.9-1.9,3.2-1.9h3.2v-9c0-5.3-0.4-9-1.1-9c-0.6,0-1.1-1.7-1.1-3.7v-3.7h8.5
					c4.6,0,8.5,0.4,8.5,1s1.4,0.4,3-0.2c2.3-0.9,5.6-0.9,12.4,0.1c5.1,0.7,14,1.5,19.5,1.9l10.2,0.7v7l0.1,6.9l2.7-6.4
					c2.5-6.2,2.8-6.6,6.1-6.6h3.4l3.4,16c1.8,8.9,3.5,16.1,3.7,16.4c0.8,0.9,1.6-19.3,1-24.6l-0.7-5.9l9.9,0.7
					c5.5,0.3,14.4,1,20.3,1.3l10.3,0.7l-0.8,6.7c-0.4,4.1-0.3,6.7,0.3,6.7c1.6,0,2.3-2.7,2.3-8.1v-4.8l10.8,0.9
					c6,0.4,11.1,1,11.5,1.2c0.3,0.2,1,2.8,1.4,5.7c0.4,2.8,1.1,5.5,1.5,5.9c0.4,0.2,1.6-2,2.6-5.3c2-6.4,2.3-6.4,12.6-5.2
					c4.5,0.7,4.8,1,4.8,3.8c0,1.7-0.7,3.7-1.5,4.3c-2.3,1.8-4.1,24.9-2,26.5c0.9,0.7,1.5,2.6,1.5,4.5c0,3.3,0.1,3.3,5.3,3.3h5.3
					L329.8,766.3L329.8,766.3z M280.3,764c0-1.5,0.7-3.6,1.5-4.4c1.5-1.6,3.8-21.4,2.4-20.1c-0.3,0.3-2.7,6.1-5.5,12.6
					c-2.6,6.6-5.2,12.7-5.5,13.5c-0.4,0.9,0.7,1.3,3.3,1.3C279.8,766.8,280.3,766.5,280.3,764z M265.1,763.5
					c-0.3-1.4-1.4-6.8-2.4-12.3l-1.8-10l-2,3c-2,2.9-2,3.3-0.1,7.9c1,2.6,2,6.7,2.3,9.3c0.4,3.5,1,4.4,2.5,4.4
					C265.2,765.8,265.5,765.4,265.1,763.5z M350.4,755c-0.3-3.5-0.7-7.9-0.7-9.7c0-3-0.4-3.5-3.2-3.8l-3.2-0.4l0.8,9.5
					c0.7,10.5,1.4,12.3,4.7,11.4C351,761.3,351.1,760.8,350.4,755z M188.8,756.2c0-1.9,0.7-3.8,1.5-4.5c1.1-0.8,1.8-4.2,2.3-9.7
					l0.7-8.7l-4.2-0.4c-4.1-0.3-4.2-0.3-2.5,1.6c1.2,1.4,1.9,4.3,2,9.5c0.3,6.7,0.1,8-2.3,11.5l-2.6,3.8h2.5
					C188.3,759.5,188.8,758.9,188.8,756.2z M140.6,757.7l-14.1-0.4v-3.7c0-2.5,0.6-3.7,1.6-3.7c1.3,0,1.6-2,1.6-11.7
					c0-6.4-0.2-11.5-0.4-11.3c-0.6,0.6-9,29.4-9,30.5c0,0.6,7.7,0.9,17.1,0.8l17-0.2L140.6,757.7z M537.5,753.2
					c0.6-2.6,1.2-8.9,1.5-14l0.6-9.3h-3.3c-3,0-3.3,0.2-3.3,4.1c0,2.2-0.3,6.1-0.7,8.8c-0.6,3.5-0.2,5.1,1.1,6.3c1,1,1.7,3.2,1.7,5
					v3.3l-20.8,0.3l-20.9,0.3l21.6-0.1h21.8L537.5,753.2z M94.5,752.5c0.6-3.8,0.3-4.5-1.1-4.5c-1.3,0-1.6,0.7-1.1,2.4
					c0.3,1.3,0.7,3.5,0.7,4.8C92.9,758.8,93.6,757.6,94.5,752.5z M219.3,753.6c0-0.9-0.8-1.6-1.6-1.6c-2.7,0-1.9,2,1.4,3
					C219.1,755.3,219.3,754.5,219.3,753.6z M437.5,752.8c-0.3-0.9-1.3-1.3-2-1c-2.2,0.9-1.8,2.4,0.7,2.4
					C437.4,754.2,438,753.6,437.5,752.8z M209.8,743.8c1.7-4.3,3.2-8.2,3.2-8.7c0-0.6-1.4-1-3-1c-2.4,0-3.3-0.6-3.6-2.3
					c-0.2-1.4-0.6-0.3-0.7,2.3c0,2.6-0.4,8.1-0.8,12.1C204.1,755.4,205.3,754.8,209.8,743.8z M63.7,740.1
					c-0.4-13.2-0.9-15.2-2.8-15.2c-0.9,0-1.6-1.3-1.8-2.8l-0.3-2.9l-8.6,0.6l-8.6,0.6l5.7,9c3.2,5,7.3,12.2,9.4,16.1
					c2.6,5.3,4.2,7,5.5,6.8C63.8,751.6,64,750.2,63.7,740.1z M593.9,747.2c1.4-2.8,5.5-9.9,9.1-15.8c3.7-6.1,6.7-10.9,6.7-11.2
					s-4.4-0.8-9.7-1.1c-5.4-0.4-11.2-1-13-1.3c-1.8-0.4-2.6-0.3-2,0.2c3.8,2.8,4.8,14.2,1.9,20.5c-1.5,3.3-1.5,3.8,0.7,8.6
					c1.2,2.7,2.5,5,2.9,5C591.2,752.2,592.4,749.9,593.9,747.2z M81.9,748.8c0.8-1.4,1.7-3.7,2-5.2c0.7-2.7,0.7-2.7-3.6-1.6
					c-2.6,0.7-4.2,1.7-4.2,2.7c0,3.3,1.4,6.3,2.7,6.3C79.6,751,81,750,81.9,748.8z M373.6,748.8c-0.3-1.4-0.7-3.5-0.7-4.7
					c0-1.9-0.7-2.4-2.7-2.4c-2.3,0-2.6,0.3-2,2.4c0.3,1.3,0.7,3.4,0.7,4.7c0,1.8,0.7,2.3,2.7,2.3C373.8,751,374.1,750.7,373.6,748.8
					z M399.3,745.5l-0.1-5.6l-1.5,3.5c-1.3,2.7-1.3,3.8-0.2,5.6c0.7,1.1,1.4,2,1.5,2C399.2,751,399.3,748.6,399.3,745.5z
					 M176.2,747.4c-0.8-1-1.6-1.4-1.9-1.1c-0.3,0.2,0.1,1.2,0.9,2c0.8,1,1.6,1.4,1.9,1.1C177.2,749.2,176.9,748.3,176.2,747.4z
					 M503.4,749c0-0.6-0.8-1.1-1.6-1.1s-1.6,0.6-1.6,1.1c0,0.7,0.8,1.1,1.6,1.1S503.4,749.6,503.4,749z M520.3,738.9V729h-4.2
					c-2.8,0-4,0.4-3.7,1.4c0.2,0.7,1.6,5.5,3.2,10.5c1.5,5.1,3.2,9,3.7,8.7C519.9,749.1,520.3,744.4,520.3,738.9z M105.1,732.7
					c-1.6-5.1-3-9-3.3-8.7c-0.2,0.2,0.9,4.5,2.4,9.5c1.5,5.1,2.9,9,3.2,8.8C107.7,742,106.6,737.6,105.1,732.7z M562.9,735
					c0.4-4.3,0.6-8.7,0.2-9.8c-0.2-1.1-0.6-0.2-0.7,2c-0.1,3.5-0.4,3.8-2.7,3.8c-2.5,0-2.6,0.3-2.6,5.9c0,5.4,0.2,5.9,2.5,5.9
					C562.1,742.7,562.3,742.2,562.9,735z M120.3,724.1c0.1-0.8-0.9-1.4-1.9-1.4c-1.8,0-1.9,0.3-0.9,3.8c1.2,3.6,1.3,3.7,1.9,1.3
					C119.9,726.4,120.2,724.7,120.3,724.1z M58.3,706.1c0-1.1-0.7-1.4-1.7-1c-1,0.3-2.3,0.7-3.2,0.7s-1.5,0.7-1.5,1.4
					c0,1,1.1,1.3,3.2,1C56.9,707.8,58.3,707,58.3,706.1z M600.2,707.4c0-0.9-0.7-1.6-1.3-1.6c-0.8,0-2.4-0.3-3.7-0.7
					c-1.8-0.6-2.4-0.2-2.4,1c0,1,1.2,1.8,2.9,2c1.6,0.2,3.2,0.6,3.7,0.7C600,708.9,600.2,708.3,600.2,707.4z M40.4,701.6v-6.3h4.5
					c2.4,0,6.2-0.6,8.5-1.2c4-1.1,4.1-1.2,2-3.3c-2.6-2.8-7-5.1-10.3-5.1c-3.7,0-10.2,3.5-11.8,6.3c-1.9,3.2-0.7,10.2,2.5,13.4
					C39.5,709.3,40.4,708.6,40.4,701.6z M616.8,705.6c1.8-1.5,3.5-10.4,2.3-12.5c-1.6-2.9-6.2-6.1-10.1-6.8c-4.2-0.8-11.4,2-13.1,5
					c-0.9,1.6-0.3,2,2.9,2.9c2.2,0.7,6.1,1.2,8.6,1.2h4.6l-0.4,6.3c-0.3,6-0.2,6.2,1.8,5.7C614.6,706.9,616,706.1,616.8,705.6z"/>
				<path id="pNd1JbANI" class="st4" d="M420.1,617.3c-1.1-0.6-1.9-1.6-1.9-2.2c0-1.2-1-2.3-7.3-9c-1.7-1.8-3.2-3.8-3.2-4.7
					c0-0.8-1.7-2.4-3.7-3.8c-2-1.3-3.7-2.8-3.7-3.6c0-1.2-1-2.3-7.3-9c-1.7-1.8-3.2-3.8-3.2-4.3c0-0.7-1.2-2-2.6-3.2
					c-1.5-1.3-2.6-2.7-2.6-3.6c0-0.8-1.4-2.3-3.2-3.3c-1.7-1.1-3.2-2.8-3.2-3.8c0-1.1-1-2.3-2-2.6c-1.2-0.3-2.6-1.7-3.3-2.9
					s-2.5-3.4-4.2-4.7s-3-2.8-3-3.4c0-0.6-1.1-2-2.3-3.6c-1.4-1.4-3.8-4.3-5.6-6.4c-1.7-2-4.7-5.4-6.4-7.2c-1.9-1.9-3.5-3.8-3.5-4.5
					s-1.2-1.9-2.6-2.8s-2.6-2.4-2.6-3.2c0-0.9-1.2-2.2-2.6-3.2c-1.5-1-2.6-2.4-2.6-3.3c0-0.9-1.2-2.3-2.6-3.3
					c-1.5-1-2.6-2.5-2.6-3.5s-1.7-2.7-3.7-4.1c-2.8-1.8-3.7-2-3.7-0.8c0,0.9-1,2-2,2.6c-1.2,0.7-2.8,2.5-3.7,4.2
					c-0.9,1.7-2.5,3.3-3.7,3.7c-1.2,0.3-2,1.6-2,2.6c0,1.1-1.2,2.6-2.6,3.6s-2.6,2.3-2.6,2.9c0,1.3-1.6,3.3-8.7,10.3
					c-2.2,2-4,4.4-4,5.2c0,0.7-0.8,1.5-1.6,1.8c-0.9,0.4-1.6,1.2-1.6,1.9s-1.9,2.8-4.2,4.7c-2.3,1.9-4.2,4.1-4.2,4.8
					c0,0.8-0.8,1.6-1.6,2c-0.9,0.3-1.6,1.1-1.6,1.7c0,0.6-1.8,3-4.1,5.4c-2.2,2.4-5.5,6-7,7.9c-1.7,1.9-4.3,4.8-6,6.3
					s-2.9,3.4-2.9,4.1c0,0.7-1.4,2.2-3.2,3.5c-1.8,1.4-3.2,3-3.2,3.8s-2.6,4.1-5.9,7.6c-7.2,7.8-9,9.8-9,10.4c0,1.5-9,9-10.6,9
					c-2,0-1.9-0.3,0.9-3.8l2.8-4l-4.1,4l-4.2,4.1l-0.3-3.2c-0.3-2.8,1.6-5.5,14.2-20.1c7.9-9.4,14.8-16.9,15.3-16.9
					c0.4,0,0.9-0.6,0.9-1.1c0-1.5,27.3-33.7,28.5-33.7c0.6,0,1-0.7,1-1.4c0-0.8,2.8-4.3,6.3-8.1s6.3-7,6.3-7.3s2.6-3.4,5.9-6.8
					s5.9-6.4,5.9-6.6c0-0.2,3.4-4.3,7.4-9.3c6.4-7.7,7.9-8.9,10.8-8.9c2.6,0,4.1,1,7.2,4.6c2,2.6,3.8,5,3.8,5.2s1.9,2.3,4.1,4.7
					c6.4,6.8,24.4,28.4,24.4,29.6c0,0.6,0.7,1.2,1.4,1.5c1.5,0.6,16.6,17.9,16.6,19.1c0,0.4,1.5,2,3.2,3.5c1.8,1.4,3.2,3,3.2,3.7
					c0,0.6,1.5,2.2,3.2,3.7c1.8,1.4,3.2,3.3,3.2,4.1c0,0.9,0.4,1.5,1,1.5c1.3,0,15.9,17.3,15.9,18.8c0,0.7,0.4,1.2,1,1.2
					s4.1,3.7,7.9,8.2c5.6,6.4,6.9,8.9,6.9,11.6v3.7l-2-2.3c-1.3-1.3-2.5-2.3-2.8-2.3c-0.4,0-0.2,0.6,0.6,1.3
					C427,618.3,424,619.6,420.1,617.3z M253.5,585.1l1.9-2.9l-2.2,2c-1.3,1.2-2.3,2.4-2.3,2.9C250.8,588.6,251.5,588,253.5,585.1z
					 M259.5,578c2.4-3.4,1.8-3.4-1.4,0c-1.4,1.5-2,2.6-1.5,2.6C257.3,580.6,258.5,579.2,259.5,578z M394,578.2
					c0-0.2-1.3-1.5-2.8-2.9c-2-1.9-2.5-2-1.4-0.4C391.7,577.3,394,579.1,394,578.2z M385.6,568.6l-2.4-2.3l1.8,2.9
					c1.1,1.6,2,2.6,2.4,2.3S387,570,385.6,568.6z M277.1,557.2c1.6-2.2,1.8-2.9,0.7-2c-1.7,1.4-4.3,5.4-3.5,5.4
					C274.5,560.6,275.8,558.9,277.1,557.2z M333.1,506.6l-2.4-2.3l1.8,2.9c1.1,1.6,2,2.6,2.4,2.3
					C335.2,509.3,334.3,507.8,333.1,506.6z"/>
				<path id="pdh5m99gt" class="st4" d="M175.9,562.4c0.8-0.8,1.3-2,1.3-2.8c0-1.2-0.4-1.1-1.6,0.6c-1.4,1.9-1.5,1.8-1.6-1.8
					c0-2.9,0.7-4.2,2.6-5.6c1.5-1,2.6-2.4,2.6-3.3c0-0.8,1.5-2.4,3.2-3.7s3.2-2.8,3.2-3.6s1.5-2.3,3.2-3.6c1.8-1.4,3.2-3,3.2-3.8
					c0-0.9,1.2-2.2,2.6-3.2c1.5-1,2.6-2.4,2.6-3.2c0-0.9,1.2-2.2,2.6-3.2c1.5-1,2.6-2.4,2.6-3.3c0-0.9,1-2,2-2.8
					c1.2-0.8,2-1.9,2-2.6s0.8-1.4,1.6-1.4c0.9,0,1.6-0.6,1.6-1.2c0-0.7,1.2-2,2.6-3.3c1.5-1.2,2.6-2.6,2.6-3.5c0-0.8,1.2-2,2.6-3
					c1.5-1,2.6-2.4,2.6-3.2c0-0.9,1.2-2.2,2.6-3.2c1.5-1,2.6-2.4,2.6-3.3c0-0.8,1.5-2.4,3.2-3.7s3.2-2.9,3.2-3.7
					c0-0.9,1.5-2.5,3.2-3.8s3.2-2.8,3.2-3.6s1.5-2.3,3.2-3.6c1.8-1.3,3.2-2.9,3.2-3.7c0-0.9,1-2,2-2.6c1.2-0.7,2-1.8,2-2.6
					s1.5-2.5,3.2-3.8c1.8-1.3,3.2-2.9,3.2-3.7s1-1.9,2-2.6c1.2-0.8,2-1.9,2-2.6s0.8-1.4,1.6-1.4s1.6-0.6,1.6-1.2s1.2-2,2.6-3.3
					c1.5-1.2,2.6-2.5,2.6-3.2s0.9-2,1.8-3.3c1.8-1.9,1.8-2,0-2.9c-1-0.7-1.8-1.6-1.8-2.2s-1-2-2-3.4c-1.2-1.3-4-4.2-6.3-6.4
					c-2.3-2.4-4.2-4.6-4.2-5.1c0-0.9-2.5-3.7-8.7-10c-2.8-2.7-5.1-5.4-5.1-5.9c0-0.3-0.9-1.6-1.8-2.7c-1.1-1.2-3-3.6-4.5-5.4
					c-1.5-1.9-3.8-4.6-5.5-6.3c-1.7-1.6-2.9-3.5-2.9-4.3s-1.4-2.3-3.2-3.3c-1.7-1.1-3.2-2.5-3.2-3.2c0-0.8-1.3-2.6-2.8-4.1
					c-1.7-1.6-4.3-4.5-6.1-6.6c-1.7-2-5-5.6-7-7.8c-2.2-2.2-4-4.3-4-4.7c0-0.3-0.9-1.6-1.8-2.7c-6.1-7-8.6-9.8-10.8-12.7
					c-1.5-1.7-4.4-5-6.4-6.9c-2.2-2-4-4.4-4-5.3c0-0.8-0.8-1.7-1.6-2c-1-0.4-1.6-2-1.6-4.4c0-3.6,0.1-3.7,1.7-1.7
					c1.6,1.9,1.6,1.9,1-0.3c-0.6-2-0.2-2.4,2-2.4c2,0,7.2,5.5,27.9,29.9c14.1,16.6,25.4,30.5,25.4,31c0,0.6,0.4,1.2,0.9,1.2
					c1,0,24.4,26.9,39.9,45.7c6.8,8.5,8.7,11.2,8.7,14c0,2.9-3.2,7.1-21.4,28.5c-11.6,13.9-28.8,33.9-38,44.9
					c-9.1,10.8-17,19.6-17.6,19.6s-1,0.6-1,1.1c0,0.7-5.1,7.2-11.3,14.7c-9.8,11.6-11.7,13.6-14.3,13.6
					C175.4,563.7,174.9,563.3,175.9,562.4z M212.8,517c-0.3-0.3-1.4,0.8-2.4,2.3l-1.8,2.9l2.4-2.3
					C212.3,518.6,213.1,517.2,212.8,517z M270.6,448.5c-0.3-0.3-1.4,0.8-2.4,2.3l-1.8,2.9l2.4-2.3
					C270.1,450.2,270.9,448.7,270.6,448.5z M227.8,382.4l-2.4-2.3l1.8,2.9c1.1,1.6,2,2.6,2.4,2.3C229.9,385,229.1,383.7,227.8,382.4
					z"/>
				<path id="p5xKiJvcS" class="st4" d="M464.8,555.8c-3.7-4.2-6.6-8.2-6.6-8.9s-0.4-1.2-1-1.2c-0.8,0-51.7-59.3-51.7-60.2
					c0-0.2-2.8-3.5-6.3-7.1c-3.5-3.8-6.3-7.4-6.3-8.1c0-0.8-0.4-1.4-1-1.4s-5.6-5.4-11.1-12c-9-10.6-10.1-12.5-10.1-16.1
					c0-3,0.8-4.7,3.2-7.1c1.7-1.7,8.1-9,14.2-16.4c20.3-24.5,24.4-29.2,49.5-58.9c13.9-16.2,25.8-29.6,26.5-29.6
					c0.9,0,1.5-0.8,1.5-1.7c0-3,5.6-8.9,8.7-8.9h2.8l-2.2,4l-2.2,3.8l2.7-3.2l2.7-3.2l0.1,2.6c0,3.4-3.7,9.5-5.9,9.5
					c-0.9,0-1.6,1-1.6,2c0,1.2-1.4,3-3.2,4.3c-1.7,1.3-3.2,2.8-3.2,3.7c0,0.8-1.2,2-2.6,3c-1.5,1-2.6,2.3-2.6,3s-1.3,2.6-2.8,4.1
					c-1.7,1.6-4.3,4.5-6.1,6.4c-1.7,2-4.4,5.1-6.1,6.4c-1.7,1.6-2.9,3.4-2.9,3.8c0,0.9-1.1,2-9,10.2c-1.5,1.5-2.6,3-2.6,3.6
					c0,0.4-1.3,2.2-2.8,3.8c-1.7,1.7-4.6,5-6.6,7.1c-2,2.3-5,5.5-6.4,7c-1.7,1.6-2.9,3.5-2.9,4.3s-0.8,1.7-1.6,2
					c-0.9,0.4-1.6,1.2-1.6,1.7c0,0.7-1.3,2.4-2.8,4c-7.6,7.8-8.8,9-8.8,9.9c0,0.4-1.3,2.2-2.8,3.8c-10.2,10.6-11.1,11.7-11.1,14.2
					c0,1.8,1.2,3.7,3.8,6c2,1.7,3.8,3.7,3.8,4.3c0,0.8,1,1.9,2,2.6c1.2,0.8,2,2,2,2.8c0,0.9,1.2,2.3,2.6,3.3c1.5,1,2.6,2.3,2.6,3.2
					c0,0.8,1.7,2.6,3.7,4.2c2,1.5,3.7,3.4,3.7,4.2s1.2,2.2,2.6,3.2c1.5,1,2.6,2.3,2.6,3c0,0.9,1.5,2.4,3.2,3.7
					c1.8,1.3,3.2,2.9,3.2,3.7c0,0.9,1.7,2.7,3.7,4.3c2,1.5,3.7,3.4,3.7,4.2s1,1.9,2,2.5c1.2,0.7,2,1.7,2,2.4s1.5,2.4,3.2,3.7
					c1.8,1.4,3.2,2.9,3.2,3.8c0,0.8,1.7,2.7,3.7,4.4c2,1.7,3.7,3.6,3.7,4.2c0,0.8,0.8,1.5,1.6,1.9c0.9,0.3,1.6,1.3,1.6,2
					c0,0.9,1.5,2.5,3.2,3.8c1.8,1.3,3.2,2.8,3.2,3.7s1.5,2.4,3.2,3.7c1.8,1.3,3.2,2.9,3.2,3.7c0,0.9,1.2,2.3,2.6,3.3
					c1.5,1,2.6,2.3,2.6,3c0,0.8,1.7,2.6,3.7,4.1c2,1.6,3.7,3.3,3.7,3.8c0,0.7,1.5,2.4,3.2,4c2.2,2.2,3.2,4.1,3.2,6.4
					c0,2.9-0.2,3.3-1.6,2c-1.9-1.6-2,0.1-0.3,1.9c1,1,0.6,1.3-1.8,1.3C471.9,563.7,470.1,562.3,464.8,555.8z M399.1,469
					c-0.8-1.2-2-2.3-2.9-2.6c-0.9-0.4-0.4,0.6,1,2C400.1,471.6,400.8,471.9,399.1,469z"/>
				<path id="ppsBPujoR" class="st4" d="M305.3,367.6c-9.5-11.2-32.7-38.7-51.9-61.1c-46.9-55.2-43.5-51-43.5-55.3
					c0-3,0.1-3.4,1.1-1.9c0.6,1.1,1.6,1.9,2.2,1.9c0.8,0,0.7-0.6-0.2-1.6c-1.2-1.4-0.9-1.6,2-1.6c2.3,0,3.6,0.7,4.1,2
					c0.4,1.1,2.3,3.3,4.2,4.8c1.8,1.6,3.4,3.4,3.4,4c0,0.8,1.5,2.4,3.2,3.8c1.8,1.5,3.2,3.2,3.2,3.8c0,0.8,0.8,1.5,1.6,1.9
					c0.9,0.3,1.6,1.3,1.6,2c0,0.9,1.5,2.5,3.2,3.8s3.2,2.9,3.2,3.7c0,0.9,1.2,2.3,2.6,3.3c1.5,1,2.6,2.3,2.6,3.2
					c0,0.8,1.9,2.9,4.2,4.7c2.3,1.9,4.2,3.8,4.2,4.5s1,1.8,2,2.5c1.2,0.8,2,2,2,2.8c0,0.9,1.2,2.3,2.6,3.3c1.5,1,2.6,2.2,2.6,2.7
					c0,0.7,2.6,3.7,5.9,6.8s5.9,6.3,5.9,7s1.9,2.9,4.2,5c2.3,2,4.2,4.1,4.2,4.7c0,0.8,0.8,1.5,1.6,1.9c0.9,0.3,1.6,1.3,1.6,2
					c0,0.9,1.7,2.8,3.7,4.3c2,1.6,3.7,3.5,3.7,4.3s1.2,2.3,2.6,3.3c1.5,1,2.6,2.2,2.6,2.7c0,0.7,2.6,3.7,5.9,6.8
					c3.2,3.2,5.9,6.4,5.9,7.1c0,0.9,1.2,2.3,2.6,3.5c1.5,1.2,2.6,2.5,2.6,3.2s1.8,2.5,4,4.2l3.8,3.2l2.9-2.3
					c1.6-1.3,2.8-2.7,2.8-3.4s1.5-2,3.2-3.4c1.8-1.4,3.2-3,3.2-3.8s1.5-2.4,3.2-3.7c1.8-1.3,3.2-2.8,3.2-3.6s1.5-2.3,3.2-3.6
					c1.8-1.4,3.2-3,3.2-3.8s1.5-2.4,3.2-3.7c1.8-1.3,3.2-2.9,3.2-3.8s0.8-1.8,1.6-2c0.9-0.4,1.6-1.3,1.6-2c0-0.9,1.5-2.4,3.2-3.7
					c1.8-1.3,3.2-2.9,3.2-3.7c0-0.9,1.2-2.3,2.6-3.3c1.5-1,2.6-2.3,2.6-2.9c0-0.8,1.5-2.3,3.2-3.6c1.8-1.4,3.2-3,3.2-3.8
					s1.5-2.4,3.2-3.7c1.8-1.3,3.2-2.9,3.2-3.7c0-0.9,1-2,2-2.6c1.2-0.7,2-1.8,2-2.6c0-0.9,1.7-2.7,3.7-4.3c2-1.5,3.7-3.4,3.7-4
					c0-0.8,1.5-2.3,3.2-3.6c1.8-1.4,3.2-3,3.2-3.8c0-0.9,1.2-2.2,2.6-3.2c1.5-1,2.6-2.4,2.6-3.2c0-0.9,1.2-2.2,2.6-3.2
					c1.5-1,2.6-2.4,2.6-3.3c0-0.8,1.5-2.4,3.2-3.7c1.8-1.3,3.2-2.8,3.2-3.7s1.5-2.4,3.2-3.7c1.8-1.3,3.2-2.8,3.2-3.7
					c0-0.8,1.2-2,2.6-3c1.5-1,2.6-2.4,2.6-3.2c0-1.7,4.4-4.8,6.8-4.8c2,0,2,1-0.2,3.6c-1.1,1.3-0.3,0.9,1.6-1l3.5-3.2l-0.3,3.8
					c-0.3,3.4-4.3,8.6-28.2,36.8c-15.3,18.2-33.1,39.1-39.5,46.8c-6.3,7.6-19.2,22.7-28.3,33.5c-16.7,17.9-18.4,19.5-21.5,19.5
					C322.9,387.9,321.1,386.3,305.3,367.6z M317.6,372.7c-1-1.5-2-2.4-2.3-2c-0.6,0.4,2.7,4.7,3.7,4.7
					C319.2,375.4,318.5,374.2,317.6,372.7z M312.3,366.4c-1-1.5-2-2.4-2.3-2c-0.6,0.4,2.7,4.7,3.7,4.7
					C313.9,369,313.2,367.9,312.3,366.4z M276.6,324.3c-1-1.5-2-2.4-2.3-2c-0.6,0.4,2.7,4.7,3.7,4.7
					C278.1,326.9,277.5,325.8,276.6,324.3z M405.3,289.6c-0.3-0.3-1.4,0.8-2.4,2.3l-1.8,2.9l2.4-2.3
					C404.8,291.3,405.6,289.9,405.3,289.6z M248,290.6c-1.1-1.4-2.3-2.6-2.8-2.6s0.1,1.2,1.5,2.6C249.8,294,250.4,294,248,290.6z"/>
			</g>
		</g>
		<g id="l5qsFlcDvFGUYOXTszbQl0T">
			<g>
				<path id="p1DQmI29Cm" class="st5" d="M174,630.5c-5.9-2.5-10.4-7.7-12.1-13.5c-1.1-3.6-1.6-10.2-1.6-21.1V580l12.4-14.2
					c6.7-7.9,22.2-26.2,34.5-40.4c12.2-14.3,33.2-39.1,46.7-55c21.1-24.8,24.4-29.2,23.1-30.6c-3.5-4.6-17.4-21.1-28.8-34.4
					c-7-8.1-24.5-28.8-39-45.8c-14.3-17-31.2-37-37.5-44.2l-11.5-13v-34.5v-34.5h18.7h18.6l13.9,16.7c7.7,9,27.9,33.2,45.1,53.4
					c17.1,20.3,39.7,46.9,50.2,59.2c18.3,21.5,19.2,22.3,20.9,20.5c2.7-2.9,30.8-36,45.5-53.5c7.2-8.7,24.4-29.1,38.1-45.2
					c13.9-16.2,29.1-34.4,34.2-40.3l9.1-10.7l18.4,0.2l18.4,0.3l0.1,34.2l0.2,34.2l-6.8,8c-3.8,4.4-10.1,11.7-14.1,16.5
					s-17.4,20.5-30,35.2c-12.5,14.7-26.9,31.8-31.9,37.8c-5.1,6.1-14.9,17.8-22,26.2c-7.1,8.3-13,15.3-13,15.7
					c0,0.3,3.8,5.2,8.8,10.8C399.1,472,467,552,479.4,566.5l12.5,14.4l-0.4,17.6c-0.3,16.9-0.4,17.8-3.3,22.5
					c-5.9,10-10.3,11.5-35,11.4c-17.6-0.1-19.3-0.3-21.1-2.2c-1-1.1-2.4-2-3.3-2c-0.8,0-1.4-0.8-1.4-1.7c0-2.2-7.2-10.9-9-10.9
					c-0.9,0-1.5-0.9-1.5-1.9c0-2-3-5.5-5.1-5.5c-0.7,0-1.3-1.1-1.5-2.3c-0.2-1.4-1.6-3-3.2-3.8c-1.7-0.8-2.9-2.2-2.9-3.3
					c0-2.3-12.3-16.9-14.2-16.9c-0.9,0-1.5-0.9-1.5-1.9c0-2-4.1-6.4-6.1-6.4c-0.8,0-1.4-1.1-1.6-2.3c-0.2-1.4-1.6-3-3.2-3.8
					c-1.7-0.8-2.9-2.2-2.9-3.2c0-2.4-6.1-9.6-9-10.7c-1.3-0.6-2.5-2-2.7-3.4s-1.4-2.8-2.6-3.5c-1.4-0.6-2.4-1.7-2.4-2.4
					c0-2-8.3-11.7-10.1-11.7c-0.9,0-1.5-0.9-1.5-1.9c0-2.5-6.1-9.6-9-10.8c-1.5-0.6-2.5-1.8-2.5-2.8c0-2-3-5.5-5.1-5.5
					c-0.8,0-1.3-1-1.3-2c0-2.4-2.3-4.2-2.9-2.4c-0.2,0.8-1.1,1.3-1.8,1.3c-1.7,0-7.4,7.1-8,9.9c-0.2,1.2-1.8,2.8-3.6,3.8
					c-1.7,1-3.3,2.7-3.5,3.8c-0.2,1.3-1.3,2.4-2.4,2.7s-2,1.5-2,2.7c0,1.4-1,2.6-2.5,3.2c-2.7,1.1-15.3,15.7-15.3,17.8
					c0,1.7-2.5,4.4-4.1,4.4s-7.4,7.6-7.4,9.7c0,1.1-0.8,1.9-1.5,1.9c-2,0-39.6,44.1-39.6,46.6c0,1.1-0.8,1.9-1.8,1.9
					c-2,0.1-9.8,9.4-9.8,11.7c0,1.5-5.6,4.4-7.2,3.8c-0.7-0.1,6.8-9.6,16.5-20.9c9.6-11.3,24.4-28.8,32.8-38.7
					c8.5-10.1,16.2-19.2,17.4-20.5c2.3-2.7,32.4-38.3,37-43.8c1.7-2,4.1-4.8,5.3-6.1l2-2.3l8.7,10.2c9.1,10.9,49.3,58.4,56.6,67
					c4.3,5.1,21.5,25.3,38.3,45.1c4.2,5.1,8,9,8.3,8.7c0.2-0.3-1.8-3.3-4.6-6.4c-2.8-3.4-8-9.4-11.4-13.5
					c-14-16.6-23.6-28-31.8-37.5c-8.8-10.2-14.4-17-33.3-39.5c-9.8-11.5-28.5-33.6-30.3-35.5c-0.4-0.4-7.9,7.6-16.6,17.9
					c-8.8,10.3-28.8,33.9-44.6,52.4c-29.7,34.9-47.4,55.8-51.1,60.8l-2.3,2.8h-17.1C181.9,632,176.8,631.6,174,630.5z"/>
				<path id="p9k4N1jfo" class="st5" d="M160.4,575.5c0-1.5,4.2-7.1,11.5-15.6c6.4-7.3,11.5-14.2,11.5-15.2s0.7-2,1.4-2
					c2,0,5-3.5,5-5.6c0-1,0.7-1.8,1.5-1.8c2,0,20.4-21.8,20.9-24.6c0.2-1.2,1.6-2.8,3.2-3.6c3.2-1.5,9.3-8.7,9.3-10.9
					c0-0.8,1.1-1.9,2.4-2.4c1.3-0.7,2.4-2,2.6-3.2c0.2-1.3,1.4-2.6,2.6-3.2c1.3-0.7,2.5-2.2,2.8-3.7c0.3-1.4,1.9-3.3,3.5-4
					c3.3-1.6,8.1-7.6,8.1-10.1c0-1,1.1-2,2.4-2.6c3-1.2,11.3-10.8,11.3-13.2c0-1,1.1-2,2.4-2.6c1.4-0.6,3.7-2.6,5.3-4.6
					c2.4-3.2,2.6-4.1,1.8-7c-1.1-3.6-3.8-7.3-5.5-7.3c-1.5,0-4-2.8-4-4.5c0-2-8.2-11.3-10.1-11.3c-0.9,0-1.5-0.9-1.5-1.8
					c0-2.3-10.2-14.1-12.1-14.1c-0.9,0-1.6-1.1-1.8-2.3c-0.2-1.4-1.4-2.8-2.6-3.5c-1.4-0.6-2.4-1.8-2.4-2.7c0-1.9-3.2-5.2-5.1-5.2
					c-0.8,0-1.3-1-1.3-2c0-1.4-1.1-2.5-2.6-3.2c-1.5-0.6-2.6-1.8-2.6-2.7c0-2-6.9-10.9-8.6-10.9c-1.7,0-4.1-2.7-4.1-4.5
					c0-2-8.2-11.3-10.1-11.3c-0.9,0-1.5-1-1.5-2c0-1.4-1.1-2.5-2.6-3.2c-1.5-0.6-2.6-1.8-2.6-2.9c0-2-3-5.5-5.1-5.5
					c-0.8,0-1.3-0.9-1.3-2c0-2.3-8-11.6-10.1-11.6c-0.9,0-1.5-0.9-1.5-1.8c0-1-2.4-4.5-5.4-7.9c-3.4-3.8-5.2-6.8-5-8.2
					c0.3-2,7.4,6.1,40.7,45.8c4.8,5.9,9.1,10.7,9.5,11.1c0.7,0.6,4.1,4.6,23.2,27.3c6.6,7.9,16.4,19.3,21.6,25.4
					c5.2,6.1,10.4,12.1,11.5,13.5c1.2,1.5,3.7,4.4,5.7,6.6c2.4,2.8,3.3,4.4,2.5,5.4c-4.3,5.4-11.3,14.1-11.7,14.3
					c-0.4,0.3-6.8,7.8-14.3,16.7c-7.4,9-18.2,21.5-23.6,28c-5.5,6.4-14.9,17.7-21.1,24.8c-17,20.2-41.3,48.6-42.8,50.4
					C160.6,577.7,160.4,577.5,160.4,575.5z"/>
				<path id="pdJoWpKLa" class="st5" d="M482.8,567.7c-4.1-4.8-22-26.1-39.8-47.2c-17.9-21.2-32.7-38.6-33.1-38.9s-3.3-3.6-6.4-7.3
					c-3.1-3.7-6.1-7-6.3-7.3c-2.2-2-21.1-25.4-21.1-26.1c0-0.4,1.6-2.5,3.5-4.5s5.9-6.4,8.7-10c2.9-3.5,6-6.9,6.6-7.8
					c0.9-0.9,4.1-4.8,7.3-9c3.3-4.1,7.2-8.9,8.8-10.6c10.4-11.8,14.9-17.3,22.5-26.4c2.9-3.5,5.9-6.8,6.3-7.4
					c0.7-0.7,12.4-14.3,26.3-30.7c14-16.4,25.4-29.5,25.6-29.3c1.1,1.1-2.5,6.6-9.6,14.9c-4.4,5.1-8,10.1-8,11.3
					c0,1.3-1,2.2-2.2,2.5c-2.4,0.7-27.2,29.5-27.2,31.7c0,1.6-2.5,4.4-4,4.4s-9.7,10.2-9.7,12c0,1-0.7,1.7-1.5,1.7
					c-1.7,0-15.3,15.7-15.3,17.7c0,1.6-2.5,4.4-4,4.4c-1.3,0-10.7,12.1-10.7,13.8c0,1.5-2.6,4.2-4,4.2c-1.5,0-9.7,10.2-9.7,12
					c0,1-0.7,1.7-1.4,1.7c-0.9,0-2.2,0.9-3.2,1.9c-1.6,1.7-1.2,2.5,7.2,12.6c5,6,9.5,10.7,10,10.7c1.5,0,4.1,2.7,4.1,4.3
					c0,1.7,7.1,10.4,8.6,10.4c1.6,0,4.1,2.7,4.1,4.5c0,2,8.2,11.3,10.1,11.3c0.9,0,1.5,0.9,1.5,2c0,2.3,8,11.6,10.1,11.6
					c0.9,0,1.5,0.9,1.5,2c0,2.3,14.2,19.1,16.4,19.1c0.8,0,1.6,1.1,1.8,2.4c0.2,1.3,1.4,2.7,2.7,3.4c1.3,0.6,2.3,1.8,2.3,2.6
					c0,2,26.1,32.6,27.8,32.6c1.6,0,2.8,4.5,1.7,6.2C490.4,575.9,487,572.6,482.8,567.7z"/>
				<path id="pGYiXcXl8" class="st5" d="M313.7,368.2c-19.7-23.5-65.4-77.4-69.8-82.3c-10.7-12.4-43.5-51.7-43.5-52.1
					c0-2,3.7,0.4,7.9,5.3c2.6,3.2,5.6,5.9,6.4,5.9s1.5,0.8,1.5,1.7c0,2.5,7.7,11.8,9.8,12c1,0,1.8,0.9,1.8,1.9
					c0,2.3,14.2,19.2,16.4,19.2c0.9,0,1.6,1,1.6,2c0,1.2,0.8,2,1.6,2s1.6,0.9,1.6,1.9c0,2,5.2,7.6,7.1,7.6c0.8,0,1.3,0.9,1.3,1.9
					c0,2.4,36.4,45.5,38.5,45.5c0.8,0,1.6,1,1.8,2c0.2,1.2,6.7,9.6,14.3,18.8l14.2,16.8l1.9-2.4c1.1-1.4,1.9-3.2,1.9-4.1
					s0.7-1.7,1.4-1.7c1.9,0,5-3.4,5-5.4c0-0.9,1.1-2,2.4-2.5c1.3-0.7,2.4-2,2.6-3.4s1.1-2.4,2-2.4c1.9,0,5.5-4.1,5.6-6.3
					c0-0.9,1.1-2,2.4-2.6c1.3-0.7,2.4-2,2.6-3.4s1.2-2.4,2-2.5c2,0,13.3-13.6,13.8-16.7c0.2-1.2,1-2,1.7-2c1.8,0,4.8-3.5,4.8-5.4
					c0-0.9,1.1-2,2.4-2.5c1.3-0.7,2.4-2,2.6-3.4s1.2-2.4,2-2.4c2-0.1,10.7-10.5,10.7-13.1c0-1,0.7-1.7,1.5-1.7
					c1.9,0,10.1-9.5,10.1-11.5c0-0.9,1.1-2,2.4-2.6c1.3-0.7,2.4-2,2.6-3.4s1-2.4,1.7-2.4c1.8,0,4.8-3.5,4.8-5.4c0-0.9,1.1-2,2.3-2.5
					c1.4-0.7,2.6-2,2.8-3c0.4-2.3,2.6-4.8,4.2-4.8s7.4-7.6,7.4-9.8c0-1.1,0.9-2,1.9-2.5c1-0.3,4.4-3.5,7.6-6.9
					c3.3-3.5,6.4-6.1,7.1-6c1.1,0.3-8.8,13-21.3,27.2c-1.3,1.5-16.8,19.9-34.6,41.1c-48.2,57.2-53.1,62.9-61.3,72.2l-7.4,8.7
					L313.7,368.2z"/>
			</g>
		</g>
		<g id="l51SvudJoNWdinSdbi6TNWG">
			<g>
				<path id="ppsZHRNAX" class="st6" d="M303,772.5c-38.2-3.5-103.1-8.9-116.8-9.8c-9.8-0.6-41.7-1.3-70.8-1.5
					c-60.6-0.6-54.5,0.8-60.8-11.5c-2-4.2-6.6-11.7-9.9-17c-3.4-5.2-7-11.5-8.5-14.2c-2-4.2-2-4.5-0.3-3.8c1.1,0.4,5.3,1.1,9.3,1.4
					c6,0.4,10.2-0.1,21.6-2.7c45.6-10.4,84.7-11.3,139.5-3.2c55.2,8.2,79.4,9.9,133.6,9c43-0.7,55.2-1.7,98.8-8
					c37.3-5.5,56.2-6.8,81.8-6.1c24.2,0.8,39.7,2.6,62.4,7.6c16.9,3.8,22.2,4.2,30.1,2.7c2.6-0.6,4.4-0.6,4.4,0.1
					c0,0.6-3.4,6.4-7.6,13.3c-4.1,6.7-9.6,16.1-12.1,20.8s-5.6,9.1-6.8,9.9c-1.7,1.1-13.6,1.5-54.5,1.8c-56,0.4-71.2,1.2-118,5.3
					c-16.6,1.5-40.6,3.6-53.7,4.6C343.6,773,315.2,773.6,303,772.5z M314.7,765.5c-1.8-1.3-1.8-2.4-0.8-16.7
					c1-11.7,1.7-15.5,2.9-16.5c1.6-1.3,1.5-1.4-0.9-1.4c-1.4,0-3.5-0.3-4.7-0.7c-2-0.6-2.6,0.7-6.2,10.6c-2.4,6.9-4.3,10.7-4.7,9.9
					c-0.4-0.9-1.6-5.7-2.6-10.9c-1.1-5.2-2.2-9.8-2.5-10.1c-0.3-0.4-4-1-8.1-1.4l-7.4-0.7l0.6,2.7c0.4,2.5-6,20.4-7.2,20.4
					c-0.3,0-1.5-4.7-2.5-10.5c-1.6-8.6-1.7-10.7-0.6-12.1c1.2-1.4,0.7-1.6-4.2-1.6c-4.3,0-5.3,0.3-4.4,1.4c0.7,0.7,2,6.4,3.3,12.9
					c4.7,24.5,4.4,23.4,6,20.4c0.9-1.5,3.4-7.6,5.9-13.8c6.3-15.9,7.3-17.8,9.6-17.8c1.1,0,2,0.4,2.4,1c0.3,0.6,0.1,7.4-0.6,15.5
					c-0.8,10.7-1.6,15.1-2.7,16.5c-1.6,1.8-1.5,1.9,2.3,1.9c3.6,0,3.8-0.2,2.2-1.4c-1.7-1.3-1.7-2.3-0.7-14.9
					c0.8-7.6,1.4-13.9,1.5-14.1c0.2-0.1,1.6,6.3,3.3,14.2c1.6,8,3.3,14.9,3.7,15.3c0.4,0.4,2.5-4.3,4.7-10.5
					c6.7-19.1,7-19.3,6.3-7.1c-0.9,15.2-1.5,18.4-3.5,18.5c-3.8,0.1,2.4,1.9,7,1.9C315.9,766.8,316.3,766.6,314.7,765.5z
					 M343.2,765.1c-1.3-1.5-1.8-5.5-2.4-17.4c-0.7-14-0.6-15.6,1-15.6c1.7,0,2.8,1,5.3,4.5c1.2,1.7,1.3,1.3,1-2.4l-0.5-4.3
					l-10.2,0.8c-5.6,0.3-10.4,1-10.8,1.4c-0.3,0.3-0.3,2.5,0.2,4.8c0.6,2.9,0.9,3.4,1,1.6c0.1-3.2,1.9-5.3,4.4-5.3
					c1.9,0,1.8-1,3.5,24.5c0.3,4.4,0,6.4-1.2,7.6c-1.4,1.4-0.9,1.6,4.5,1.6C344.5,766.8,344.7,766.7,343.2,765.1z M367.8,764.8
					c3.7,0,4.1-0.2,4.6-3.6c0.4-2,0.6-4.4,0.2-5.6c-0.3-1.5-0.8-1.2-1.8,1.6c-1.4,3.8-3.8,5.5-7.7,5.5c-2.4,0-2.6-0.6-3.4-6.9
					c-0.4-3.8-0.4-7.1-0.1-7.4c1.3-1.3,3.8,0.9,4.8,4.1c1,3,1,2.8,0.6-2.3c-0.3-3.2-0.6-7.1-0.6-9l-0.1-3.2l-1.2,3.7
					c-2.5,7.1-5,4.4-5-5.4c0-4.8,0.1-5.1,2.9-5.1c3.6,0,4.7,0.9,6.9,4.7c1.7,2.8,1.8,2.9,1.3,0.6c-0.3-1.5-0.7-3.8-0.7-5.5
					c0-2.5-0.3-2.7-3.8-2.3c-16.4,1.6-16.4,1.6-14.6,2.8c1.3,1,2,4.3,2.7,11.7c1.6,16.5,1.4,21.4-0.8,22c-1.1,0.3,1.2,0.3,4.8,0.1
					C360.7,765,365.6,764.8,367.8,764.8z M383.4,763.1c2.6-0.6,3-1,1.8-1.9c-1.7-1.4-3.3-14.6-1.7-14.2c0.6,0.2,3,3.7,5.6,7.7
					c2.5,4.1,5.2,7.2,6.1,7.1c0.9-0.1,5.2-0.4,9.7-0.9c7-0.7,8-1,6.4-2c-1.3-1-2-3.3-2.3-7.8c-0.2-3.5,0-6.4,0.4-6.4
					c0.6,0,2.8,3.4,5.1,7.3l4.2,7.3l5.3-0.1c5.3-0.1,12.5-1.7,8.9-1.9c-1.5-0.1-1.9-1.1-1.9-4.2c0-4.4,1.2-5.4,6.3-5.4
					c3.8,0,6.4,5.3,4.3,8.8c-1.2,1.8-1.2,2,0.4,1.4c1-0.3,3.7-0.7,6.1-0.7c3.7,0,4-0.2,2.6-1.6c-1-0.9-4.4-8.7-7.8-17.4
					s-6.3-15.8-6.6-15.8s-2,6.4-3.6,14.4c-3.4,15.9-5.3,21.8-6.8,20.8c-0.7-0.3-2.9-3.7-5.3-7.4c-4-6.8-4.1-6.9-2-9
					c2.8-2.8,2.7-10.3-0.2-14.1c-2-2.5-2.7-2.7-9.1-2.6c-3.8,0.1-8.2,0.4-9.7,0.9c-2.5,0.8-2.5,0.8-0.4,1.4c2,0.6,2.3,1.8,3.6,15.5
					c0.7,8.2,1,15.6,0.7,16.5c-1.2,3.3-3.8,1.4-8.1-5.9l-4.3-7.2l2.2-2.8c2.6-3.3,2.8-7.8,0.7-12c-2-3.8-4.4-4.6-14-3.7
					c-6.4,0.7-7.6,1-6.1,2c1.4,1.1,2,4.6,3.2,16.6c1.4,14.1,1.4,15.2-0.3,16.6c-1.6,1.2-1.5,1.3,1,1.3
					C378.9,763.7,381.6,763.3,383.4,763.1z M255,754.3c-1.8-4.2-3.2-8.1-3.2-8.7c0-0.4,1.2-2,2.6-3.5c2.8-2.8,3.6-9.5,1.6-13.3
					c-1.3-2.4-7.1-4.2-14.2-4.2c-4.1,0-4.8,0.3-4,1.4c1.3,1.5-0.9,28.8-2.4,32.6c-0.7,1.6-0.1,1.8,4.3,1.7c2.8,0,4.5-0.3,3.8-0.7
					c-2.2-0.9-1.5-15,0.7-15c0.4,0,2,3.8,3.7,8.3c2.7,7.9,3.2,8.5,6.2,8.8c1.9,0.2,3.5,0.3,3.6,0.3C258.1,762,256.7,758.5,255,754.3
					z M231,757.7c-0.6-1.1-2.5-9.3-4.4-18.3s-3.5-16.5-3.7-16.7c-0.1-0.2-3.3,7-6.8,16.1c-3.7,9-7.3,16.7-8.2,17.1
					c-1.4,0.4-1.3,0.8,0.4,1.4c1.1,0.4,3.2,0.9,4.5,0.9c2.4,0.1,2.5,0,0.7-1.4c-1.7-1.2-1.8-2-1-5c1-3.3,1.4-3.6,5.1-3.5
					c2.2,0.1,4.4,0.9,5,1.6c1.4,2,1.2,6.6-0.3,8.1c-1,1,0,1.3,4.2,1.3C231.3,759.5,231.9,759.3,231,757.7z M202.1,743.9
					c0.3-17.7,0.9-20.4,3.8-20c1.6,0.2,2.7,1.5,3.6,4l1.3,3.7v-4.8l0.1-5l-10.1-0.8c-5.5-0.4-10.3-0.6-10.6-0.2
					c-0.2,0.3-0.8,2.6-1.1,5.2l-0.6,4.5l2-3.7c1.2-2.2,2.8-3.8,4.3-4c2.7-0.4,2.8-0.2,1.2,18c-0.8,9.1-1.6,13.2-2.7,14.2
					c-1.3,1.1-1.2,1.3,1,1.7c1.4,0.2,3.6,0.6,5.1,0.7l2.6,0.1L202.1,743.9z M76.1,755.4c0-0.6-0.6-1.2-1.3-1.4
					c-0.8-0.3-1.5-3.3-1.7-7.3l-0.4-6.8l3.7-0.8c4.6-0.9,6.1-2.6,6.7-8.3c0.4-3.4,0-5.1-1.7-7.2c-2.7-3.5-6.2-4.2-13.9-3
					c-3.2,0.6-5,1-4,1.1c2.4,0.1,2.6,1.7,3.5,18.2c0.7,13.4,0.7,14.4-1.3,15.6c-1.5,0.9-0.7,1.1,4.2,1.2
					C73.4,756.3,76.1,755.9,76.1,755.4z M183.3,752.2c2-2.9,2.4-4.6,2-8.3s-1.5-5.5-6-10c-5.7-5.9-6.8-9.7-3.7-12.3
					c2-1.8,4.6-0.3,6.8,4.1l1.7,3.4l0.8-3.3c1-4.8,0.9-7-0.3-5.3c-0.8,1.2-1.4,1.1-3.7-0.4c-5.7-3.8-11.2,1.2-11.2,10
					c0,3.7,0.8,5.1,5.9,10.5c3.2,3.5,5.9,7,5.9,8c0,3-2,5.7-4.6,5.7c-3.3,0-5.9-3-6.6-8l-0.8-4.1l-0.8,4.2c-1.3,6.8-1.2,9,0.6,8.3
					c0.9-0.3,2.4-0.1,3.5,0.6C176.3,757.4,180.7,756.1,183.3,752.2z M464.5,754.2c-1.7-1.7-2-3.5-2-9.4c0-4-0.3-8.8-0.8-10.6
					c-0.6-2.6-0.3-3.4,0.9-2.9c0.9,0.2,3.4,5.9,5.7,12.2c2.3,6.4,4.4,11.2,4.8,10.4c0.4-0.7,2-7.3,3.7-14.8
					c3.4-15.7,4.3-15.2,4.7,2.4c0.3,9.5,0.1,12-1.2,12.9c-1.2,0.8,0.9,1,6.3,0.6c4.3-0.3,9-0.7,10.4-0.7c2.4,0,2.5-0.1,0.8-1.4
					c-1.5-1.1-1.8-2.2-1.2-4.7c0.7-3.2,1-3.4,5.3-3.4c4.5,0,4.6,0.1,5.4,3.8c0.6,2.7,0.3,4.1-0.8,4.7c-1,0.7,0.8,1,4.6,1
					c5.3,0,6-0.2,4.7-1.5c-0.9-0.8-3.6-8.7-6.1-17.4c-2.5-8.7-5-15.9-5.4-15.9s-1.6,2.7-2.5,6.1c-1,3.3-3.3,10.7-5.1,16.6
					c-3,9.7-3.6,10.5-6.1,10.5s-2.6-0.3-3.3-7.9c-1.2-14.2-1.1-23.7,0.4-25.2c1.1-1.2,0.4-1.3-3.5-0.7c-2.6,0.4-4.8,0.9-5,1
					c-0.2,0.2-1.4,5.4-2.6,11.5c-1.3,6.2-2.6,10.6-3,10c-0.4-0.8-2.3-5.9-4.1-11.1l-3.5-9.8h-4.6c-3.4,0-4.3,0.3-3.4,1
					c1.2,0.8,1.8,5,2.5,16.6c1,14.3,0.9,15.7-1,16.9c-1.7,1.3-1.4,1.4,2.5,1.4h4.4L464.5,754.2z M587,755.1c-0.6-0.8-2.4-4.6-4-8.7
					c-2.7-6.3-2.8-7.3-1.5-8.5c6.1-4.4,5.2-15.1-1.5-17.5c-3-1.1-17.3-1.4-14.6-0.3c2.5,1,0.8,32.3-1.9,34.1
					c-1.1,0.8,0.3,1.1,4.5,1.1c5.9,0,6.1-0.1,4.4-1.8c-1.4-1.3-1.6-2.7-1.2-5.5c0.3-2,0.7-4.8,0.7-6.1c0-4.4,1.7-2.4,5.2,6.1
					c3.5,8.2,3.6,8.5,7.1,8.5C587.1,756.3,587.6,756,587,755.1z M89,754c-1.4-1.4-1.7-5-0.7-7.6c0.4-1.2,2-1.7,5.2-1.7
					c4.5,0,4.5,0,5.3,4.3c0.6,3.2,0.3,4.6-0.7,5.3s0.6,1,4.1,1c5,0,6.9-1.1,4.6-2.5c-0.6-0.3-3.2-7.9-6.1-16.9
					c-2.8-9-5.5-16.4-5.9-16.4s-2.4,6.7-4.6,15c-2.2,8.2-5,16.2-6.1,17.9l-2,2.8h4C89.4,755.3,89.9,755,89,754z M121.2,739.5
					c2.5-8.5,5.2-16.4,6.1-17.6c2-3.3,2-3.5-2.4-3.5c-3.5,0-3.7,0.1-1.9,1.5c1.8,1.3,1.8,1.7,0.2,8.1c-1,3.7-2.3,8.7-3.2,10.9
					l-1.5,4.2l-3.5-10.9c-3.2-10.5-3.3-11.1-1.5-12.4c1.6-1.2,1.1-1.4-4.1-1.4c-6.1,0-6.1,0-4.5,2.4c0.8,1.3,3.5,9.1,6,17.6
					c4.4,15,5.2,17.3,5.9,16.7C116.7,754.9,118.9,747.9,121.2,739.5z M164.2,753.8c-1.3-1.3-1.4-4.4-1-16.7c0.2-8.3,0.9-15.5,1.4-16
					c1.9-2,0.9-2.7-4.5-2.7c-3.8,0-5.1,0.3-4,1.1c1.3,0.8,1.5,3.7,1.2,16.6c-0.1,8.6-0.8,16.1-1.3,16.8c-1.4,1.5,0.4,2.2,5.7,2.3
					C165.1,755.3,165.6,755.1,164.2,753.8z M559.6,753.1c0.3-1.4,0.7-3.6,0.7-5.1c0-2.5-0.1-2.5-2,0.8c-2,3.5-6.1,5.3-9,4.1
					c-1.2-0.4-1.6-2.3-1.6-8c0-4,0.4-7.3,1-7.3c1.4,0,3.3,2.6,4.3,6.1c0.7,2.2,0.9,0.6,1-6.1c0-8.7,0-8.9-1.5-5.5
					c-0.9,1.8-2.2,3.4-3.3,3.4c-1.5,0-1.6-0.9-1.1-5.5c0.3-3,0.7-6.4,0.7-7.6c0-1.6,0.6-1.8,2.8-1.2c3.6,0.9,5.6,2.4,6.6,5.3
					c0.8,1.6,1,1.2,1-2.2c0.1-4.2,0-4.4-3.8-5.1c-2.2-0.3-6.8-0.7-10.2-0.7c-5.4,0-6.1,0.2-4.4,1.4c1.7,1.2,1.8,2.9,1.5,16.6
					c-0.2,8.5-0.8,16.1-1.3,17.1c-0.8,1.6,0,1.8,8.7,1.8C558.6,755.3,559,755.2,559.6,753.1z M151.8,748.8c-0.1-4.7-0.2-5.2-1-2.6
					c-1.4,4.6-3,6.1-7.4,6.1h-4.1v-15.8c0-13.9,0.2-15.8,1.9-16.7c1.4-0.9,0.1-1.1-5.1-1.1c-5.2,0-6.4,0.2-5,1.1
					c1.6,1,1.8,2.9,1.8,17.3c0,14.4-0.2,16.2-1.8,16.7c-1.1,0.3,3.2,0.6,9.5,0.7l11.3,0.1L151.8,748.8z M530.3,752.6
					c-1.5-1.6-1.6-3.7-1-16.7c0.3-8.1,0.9-15,1.2-15.3c0.8-0.9,4,1.7,5.3,4.3c1.3,2.4,1.4,2.2,1.4-2v-4.5l-10.7,0.3l-10.8,0.3
					l-0.3,3.5c-0.4,3.8,1,4.4,2.4,1.1c0.7-1.4,2-2.5,3.5-2.7c2.3-0.3,2.3-0.3,2.3,15.5c0,14-0.2,15.9-1.8,16.8
					c-1.5,0.9-0.4,1.1,4.2,1.2C531.5,754.2,531.8,754.1,530.3,752.6z"/>
				<path id="p10x156QTY" class="st6" d="M432.2,745.2c0.3-1.1,0.9-3.4,1.2-5c1-3.8,2.7-3.2,4.4,1.7c1.3,3.6,1.2,3.8-0.7,3.8
					c-1.1,0-2.7,0.3-3.7,0.8C432.1,747.1,431.8,746.8,432.2,745.2z"/>
				<path id="pii5JHzTz" class="st6" d="M382,740.9c-0.3-2.2-0.7-5.9-0.7-7.9c0-3.3,0.4-4,2-4c3.5,0,5.4,2.9,5.4,8.3
					c0,5.2-1.3,7.4-4.3,7.4C383.3,744.8,382.5,743.5,382,740.9z"/>
				<path id="pfyAPZyPt" class="st6" d="M407.7,738.7c0-2.2-0.3-5.9-0.7-7.9c-0.7-3.8-0.6-4,1.9-4c3.5,0,5.2,2,5.9,7.1
					c0.4,3.4,0.1,4.6-1.7,6.4C409.6,743.9,407.7,743.3,407.7,738.7z"/>
				<path id="p18VYqshgd" class="st6" d="M243.9,737.7c0.3-2.7,0.7-6.3,0.7-7.9c0-2.3,0.6-3,2-3c3.2,0,5.7,4.6,5,9
					c-0.9,4.8-2.4,6.7-5.9,6.7C243.3,742.7,243.3,742.5,243.9,737.7z"/>
				<path id="p1EMUJhExs" class="st6" d="M216.2,745.9c-1.2-0.8-1-1.8,1-6.1c1.9-4,2.5-4.6,2.8-3c2.3,10.5,2.3,10-0.1,10
					C218.7,746.9,217.1,746.4,216.2,745.9z"/>
				<path id="phURXkkZy" class="st6" d="M72.5,735.1c-1-3.8-0.8-13.5,0.3-13.5c2.5,0,4.3,3.6,4.3,8.3
					C77.1,736.5,74,740.2,72.5,735.1z"/>
				<path id="pgldu2neA" class="st6" d="M498.8,740.3c0.4-1.4,1.3-4.1,2-6.1l1.3-3.7l1.8,5.7c1,3.2,1.7,6,1.7,6.1s-1.7,0.3-3.8,0.3
					C498.3,742.7,498,742.5,498.8,740.3z"/>
				<path id="pXtHI4mTe" class="st6" d="M571.9,733.4c0-7.3,1.2-11.8,3-11.8c3,0,4.3,2.3,4.3,7.4c0,5.4-1.9,8.3-5.4,8.3
					C572.2,737.4,571.9,736.7,571.9,733.4z"/>
				<path id="phl4CE08q" class="st6" d="M90.2,740.3c0.4-1.4,1-3.7,1.3-5.3c1-4,2-3.7,3.4,1.2c1.8,6,1.6,6.4-2,6.4
					C89.9,742.7,89.6,742.3,90.2,740.3z"/>
				<path id="p14bDxpLXb" class="st6" d="M36.4,711c-1.9-0.6-4.2-2.2-5.2-3.6c-2.3-3.6-3.3-14.6-1.4-18c2-4,8.3-6.7,15.1-6.7
					c8.9,0,15.1,4.1,15.6,10.1c0.2,2.5-0.3,3.2-3.5,4.3c-2,0.7-6.1,1.3-8.9,1.3l-5.2,0.1l0.8,6.8c0.7,6.6,0.7,6.8-1.7,6.7
					C40.9,712,38.3,711.6,36.4,711z"/>
				<path id="pWM5gMsFW" class="st6" d="M48.5,709.9c-1.6-6.1-1.2-6.6,6.1-8.3l6.7-1.7l0.8,4.6c0.4,2.6,0.3,5.1-0.2,5.6
					c-0.4,0.4-3.5,1.2-6.7,1.6C49.4,712.3,49,712.2,48.5,709.9z"/>
				<path id="p176xP65Il" class="st6" d="M592.5,711.4c-2.8-0.4-2.9-0.7-2.6-6c0.2-4.2,0.7-5.4,1.9-5.1c0.9,0.2,4.1,1,7.1,1.5
					c5.6,1.1,5.7,1.2,5.1,4.2c-0.3,1.7-0.7,3.8-0.7,4.5C603.5,712.1,599.4,712.3,592.5,711.4z"/>
				<path id="pOlXCZFQZ" class="st6" d="M608,705.4l0.8-6.9h-4.5c-6.1,0-12.4-1.9-13.2-3.8c-0.3-0.9,0-2.9,0.8-4.7
					c3.8-9,22.6-9.9,29.4-1.4c2,2.6,2.3,3.8,1.8,9c-1.1,10.8-2.4,12.4-11.6,14.2l-4,0.8L608,705.4z"/>
				<path id="peAXA8MiX" class="st6" d="M323.1,638.6c-6.3-6.4-5.2-6.4-59.4-6.4H214l5.5-6.6c6.4-7.7,59.3-70.3,84.4-99.5
					c4.1-4.8,9-10.6,10.8-13c4.6-5.7,10.7-12.4,11.3-12.4c0.4,0,9.4,10.3,43.3,50.5c4.2,5,13.8,16.1,21.2,24.8
					c7.3,8.8,19.5,23.1,27,32s15.2,18,17.4,20.2l3.7,3.8H389c-54.6,0-54.4,0-60,6.3l-2.9,3.2L323.1,638.6z"/>
				<path id="p46kntVIE" class="st6" d="M160.4,441.1c0-114.3,0.2-136.5,1.4-135.2c1.3,1.4,37.6,44.3,59.1,69.9
					c3.4,4.1,15.8,18.6,27.3,32.2c11.5,13.6,22.6,26.6,24.4,29.1l3.4,4.3l-10.5,12.5c-5.9,6.8-13,15.3-16,18.9
					c-14.6,17.4-22.8,27-30.6,36.2c-4.7,5.5-16.4,19.2-25.8,30.5c-16.1,19.2-29.6,34.9-31.7,37.3
					C160.8,577.4,160.4,517.3,160.4,441.1z"/>
				<path id="pFnFQDfsk" class="st6" d="M479.7,564c-5.9-6.8-13.3-15.7-16.7-19.6c-3.4-4.1-7.3-8.9-9-10.6
					c-3.4-3.8-23.5-27.5-28.5-33.7c-4.2-5.2-10.3-12.3-23.7-27.9c-16.8-19.5-25.8-30.3-25.8-31c0-0.3,4.6-6.1,10.3-12.5
					c5.6-6.4,14.3-17,19.6-23.4c5.2-6.3,15.3-18.4,22.6-26.8c7.2-8.5,20.5-24.1,29.5-34.6c27.8-32.9,31.7-37.3,32.4-37.6
					s0.7,269-0.1,269.8C490.3,576.1,485.5,570.8,479.7,564z"/>
				<path id="p1BTGCN3Pa" class="st6" d="M318.7,374.1c-3.5-4.2-12-14.2-18.9-22.3c-6.9-8.2-20-23.6-29-34.3s-18.3-21.5-20.5-24.2
					c-7.3-8.6-13.9-16.1-20.6-24.4c-19.7-23.6-27.4-32.5-28.4-33.1c-0.6-0.4-1-1.1-1-1.7c0-0.6,47.8-1,125.9-1h125.9l-2,2.5
					c-1.1,1.4-5.7,6.9-10.3,12.4c-4.7,5.5-18.6,22-31,36.8c-12.4,14.7-22.8,26.9-23.1,27.2c-0.4,0.3-5.9,6.7-12,14.2
					c-6.3,7.6-12.4,14.8-13.8,16.4c-1.2,1.5-4.8,5.9-8,9.5c-3.2,3.8-6.1,7-6.3,7.3c-0.3,0.3-4.7,5.4-9.8,11.4
					c-5.1,6-9.6,10.7-10,10.7C325.4,381.6,322.2,378.2,318.7,374.1z"/>
			</g>
		</g>
		<g id="l3s0ZzU4WxajELNAZMRlgss">
			<g>
				<path id="pWII1T29q" class="st7" d="M161.1,217.7c-1.5-1.4-0.7-4.4,1.9-7.4c6.9-8.2,64.5-23.2,110-28.8
					c25.9-3.2,77.2-3.5,101.5-0.6c34.4,4,63.8,10.2,91.5,19.1c16.6,5.4,22.3,8.2,24.6,12.2c4.1,7.3-2,8-19.1,2
					c-47-16.8-96.1-25.3-146.5-25.3c-47.6,0-91.5,7.3-138.5,23.1C169,218.1,162.7,219.5,161.1,217.7z"/>
				<path id="pGuopDbb0" class="st7" d="M165.8,201.1c-1.2-2.5-1.1-2.7,4.8-5.4c11.4-5.1,39.4-14.2,56.3-18.3
					c68.9-16.8,133.8-16.6,202.3,1.1c25.6,6.6,57.4,18.3,57.4,21.1c-0.1,4.4-1.4,4.3-17.5-1c-27.1-9-57.4-15.6-89.9-19.5
					c-18.3-2.3-68-3.3-88-1.7c-39.6,3.2-78.5,10.9-111.7,22.2c-6.8,2.3-12.4,4.2-12.5,4.2C167,203.8,166.5,202.6,165.8,201.1z"/>
				<path id="p1FLsEutR2" class="st7" d="M152.7,195.6c-2.5-2.8-2.2-7.2,0.7-9c3.8-2.5,48.4-16.9,66.5-21.6
					c69.9-17.7,140.3-18.2,207.9-1.2c23.7,6.1,68.6,20.5,72.4,23.5c1.8,1.4,1.6,5.1-0.4,7.9c-2.4,3.5-6.2,2.9-20.6-2.8
					c-33.7-13.4-67.7-22-106.5-27c-17.5-2.2-57.6-3-75.8-1.6c-43.2,3.6-85.5,13.3-121.9,27.9C159,197.9,155.3,198.5,152.7,195.6z"/>
				<path id="p1CqU6561Z" class="st7" d="M174.1,168.4c-2.4-3.3-4.3-6.1-4.1-6.2c0.2-0.2,1.5-0.7,2.9-1.1c2.2-0.6,3.6,0.3,8.2,5.1
					l5.7,5.7l-3.5,1.3c-1.8,0.7-3.7,1.2-4.1,1.2C178.9,174.3,176.6,171.7,174.1,168.4z"/>
				<path id="pCsRqppXm" class="st7" d="M468.4,172.9l-2.9-1.3l5.9-5.7c5.1-5,6.1-5.5,8.5-4.7l2.7,1l-4.3,5.9
					C473.3,174.4,472.6,174.9,468.4,172.9z"/>
				<path id="phazSnGBc" class="st7" d="M183.5,165.4c-3-3.2-5.5-6.1-5.2-6.2c0.3-0.3,1.7-1,3-1.5c2.3-0.9,3.5-0.2,9.4,4.8l6.6,6
					l-3.5,1.3c-2,0.8-3.8,1.4-4.1,1.4C189.5,171.1,186.7,168.5,183.5,165.4z"/>
				<path id="plaqGHgnx" class="st7" d="M458.3,169.9l-3.6-1l5.2-5.3c6.4-6.6,7.7-7.2,11.2-5.9l2.9,1.3l-6.1,6
					C462.1,170.7,461.6,170.9,458.3,169.9z"/>
				<path id="p1AnJDaIza" class="st7" d="M193.4,161.7c-4.3-4.4-5.7-6.4-4.6-6.7c0.9-0.3,3.5-1.3,6.1-2l4.4-1.6l3.7,7.2l3.6,7.1
					l-3.3,1.2c-1.8,0.7-3.4,1.2-3.4,1.2C199.8,168.1,197,165.2,193.4,161.7z"/>
				<path id="p1EULgRDBd" class="st7" d="M449.2,167.3c-1.2-0.3-2.5-0.9-2.9-1.4c-1.2-1.1,5.3-13.8,6.9-13.8c0.9,0,3.7,0.8,6.4,1.7
					l5.1,1.8l-6.1,6.1c-3.4,3.5-6.4,6.1-6.7,6.1C451.5,167.9,450.4,167.6,449.2,167.3z"/>
				<path id="p1y6eLOR0" class="st7" d="M205.6,158.5c-1.7-3.5-3.2-6.7-3.2-7.2c0-0.9,16.7-6,17.3-5.2c0.2,0.2,1.1,3.7,1.9,7.9
					l1.6,7.4l-6.6,1.7c-3.7,1-6.8,1.7-7.1,1.7C209.1,164.8,207.4,162,205.6,158.5z"/>
				<path id="pewMqyHXp" class="st7" d="M434.5,163.1c-2.8-0.9-5.4-1.7-5.5-1.8c-0.3-0.2,2.8-14.6,3.3-15.1
					c0.4-0.3,16.6,3.8,17.3,4.5c0.2,0.1-1.3,3.4-3.2,7.2C442.7,165.5,442.6,165.5,434.5,163.1z"/>
				<path id="pIx8qBU0X" class="st7" d="M162.1,155.5l-6-4.8l6.9-2.3c3.8-1.4,7.8-2.4,8.8-2.4c1.7,0,10.2,8,9.4,8.9
					c-0.2,0.2-3.3,1.6-6.8,3l-6.3,2.5L162.1,155.5z"/>
				<path id="pfWyaXZUI" class="st7" d="M225,157.9c-0.3-1.7-1.1-4.7-1.6-6.7c-1.5-5.7-1.3-6.1,3-7.2c6.4-1.9,6.4-1.9,6.4,7.2
					c0,6.1-0.4,8.5-1.3,8.5c-0.8,0-2.4,0.3-3.7,0.7C226,160.7,225.7,160.4,225,157.9z"/>
				<path id="p4M3oBKTm" class="st7" d="M421.3,159.7c-2.5-0.7-2.6-1.2-2.9-8.9c-0.3-9-0.6-8.8,6.7-6.9c3.6,1,4.5,1.7,4.2,2.9
					c-0.3,1-1.1,4.4-1.7,7.8C426.4,160.7,426,161,421.3,159.7z"/>
				<path id="pQ0Goo3Vw" class="st7" d="M476.9,157.6l-7-2.8l5.1-4.8l5-4.8l7.2,2.5c4,1.4,7.4,2.6,7.6,2.8s-2,2.5-5.2,5.2l-5.6,4.7
					L476.9,157.6z"/>
				<path id="p23TBIG8p" class="st7" d="M236.1,150.4v-8.5l5.3-1.2c2.9-0.7,5.9-1.2,6.3-1.2c0.7,0,1.1,3.7,1.1,8.3v8.3l-4.8,0.8
					c-2.7,0.3-5.6,1-6.3,1.3C236.4,158.6,236.1,157,236.1,150.4z"/>
				<path id="pk2oJgRcZ" class="st7" d="M408.4,157.1l-6.1-1.1l0.8-8c0.4-4.4,0.9-8.2,1.1-8.3c0.1-0.2,2.9,0.1,6.1,0.9l6,1.2v8.5
					c0,4.5-0.3,8.2-0.8,8.2C414.8,158.3,411.8,157.8,408.4,157.1z"/>
				<path id="p1HhfUuRnP" class="st7" d="M179.8,149c-2.2-2.3-3.8-4.4-3.6-4.6c0.3-0.3,6.8-2.4,14.6-4.7l14.2-4.1l1.4,3
					c2.9,6.8,2.7,7-9.3,10.9c-6.1,2-11.5,3.7-12.1,3.7C184.5,153.2,182,151.4,179.8,149z"/>
				<path id="p16Lmz3ycs" class="st7" d="M454.2,149.7c-5.3-1.8-9.9-3.6-10.3-4c-1.3-1.3,1.8-9.3,3.6-9.3c2.5,0,28.5,7.6,28.5,8.3
					c0,1.3-9.4,8.6-10.7,8.3C464.6,153,459.6,151.5,454.2,149.7z"/>
				<path id="puJ2iHLxI" class="st7" d="M285.5,142.7c-1.3-4-2-7.6-1.7-7.9c0.3-0.3,3.4-0.9,6.7-1.2l6.3-0.6l3.2,7.9
					c3.8,9.1,3.8,9.1-6.1,9.1h-6.1L285.5,142.7z"/>
				<path id="prnt5lw8b" class="st7" d="M349.4,149.4c-0.3-0.6,0.9-4.1,2.4-8.2l2.9-7.3l6.4,0.1c3.6,0.1,6.7,0.3,7,0.7
					c0.3,0.3-0.4,4-1.7,8.1l-2.3,7.4H357C353.1,150.1,349.7,149.8,349.4,149.4z"/>
				<path id="prJa8R1p0" class="st7" d="M146.3,146.2c-3.8-1.6-8.5-2.5-12.3-2.6c-3.5-0.1-6.3-0.4-6.3-0.9c0-0.8,17.9-7.3,20-7.3
					c1,0,4.2,2.5,7.2,5.7c5.5,5.5,5.5,5.7,2.9,6.3c-1.5,0.3-3.3,0.9-4.1,1.1C153,148.6,149.7,147.8,146.3,146.2z"/>
				<path id="ptQVQQfVS" class="st7" d="M302.7,141.1c-1.8-4.3-2.9-8.1-2.6-8.5c0.3-0.3,3.6-0.6,7.2-0.6h6.6v8.5v8.5H310
					C306,149,306,149,302.7,141.1z"/>
				<path id="pgZGhP8h0" class="st7" d="M316,140.6v-8.5h10.1c10,0,10.1,0,9.5,2.4c-0.3,1.3-0.7,5.1-0.7,8.5v6.1h-9.5h-9.5
					L316,140.6L316,140.6z"/>
				<path id="pvwA0wv5y" class="st7" d="M338.3,140.6v-8.5h6.2c3.5,0,6.6,0.6,6.9,1.1c0.4,0.7-0.7,4.4-2.3,8.5
					c-2.9,7.2-2.9,7.3-6.8,7.3h-3.9L338.3,140.6L338.3,140.6z"/>
				<path id="piqepiSQ5" class="st7" d="M495.1,147.8l-3.6-1l6.1-6.2l6.1-6.1l6.7,2.5c10.4,3.8,14.1,5.5,14.1,6.2
					c0,0.3-1.3,0.4-2.8,0.2c-4.1-0.6-13.2,1.1-18.4,3.3C499.8,148.2,497.9,148.5,495.1,147.8z"/>
				<path id="phptXolYx" class="st7" d="M485.4,144.6c-1.7-0.6-2.9-1.4-2.9-1.9c0-0.4,2.7-3.3,6.2-6.2c6.1-5.3,6.3-5.4,9.5-4
					l3.3,1.4l-3.5,3.2C488.5,145.5,488.4,145.6,485.4,144.6z"/>
				<path id="p5DBE69if" class="st7" d="M156.3,139.2l-5.6-5.6l3.5-1.3c3.4-1.2,3.6-1.1,9.6,4.8c5.2,5.1,5.9,6.2,4.3,6.8
					C164,145.5,161.6,144.7,156.3,139.2z"/>
				<path id="pERVsXKFn" class="st7" d="M209.5,140.1c-1.3-3.7-1.4-5-0.4-5.3c1.2-0.4,14.4-3.7,21.1-5.2l2.9-0.8l-0.3,5.6l-0.3,5.5
					l-9.5,2.4c-5.2,1.3-10,2.4-10.5,2.4C211.8,144.8,210.5,142.7,209.5,140.1z"/>
				<path id="pCEz9Qc6b" class="st7" d="M428.3,142.2l-9.5-2.3l-0.3-5.4c-0.2-3,0-5.5,0.4-5.5c0.3,0,6.1,1.3,12.6,2.8
					c8,1.9,12,3.3,12,4.2c0,2.7-3,8.8-4.4,8.7C438.3,144.6,433.4,143.6,428.3,142.2z"/>
				<path id="pBKJ0kMxs" class="st7" d="M166.7,136.3l-6.4-6.1l11.5-3.7c6.4-2,12-3.8,12.5-3.8c0.9,0,8,13.9,7.3,14.2
					c-0.2,0.1-4.4,1.4-9.4,2.8l-9,2.6L166.7,136.3z"/>
				<path id="pFGRhDxak" class="st7" d="M469.7,140c-5-1.5-9.1-2.8-9.4-3c-0.7-0.7,6.2-14.2,7.1-14.2c1.5,0,21.8,6.4,22.3,7.2
					c0.4,0.4-1.9,3.4-5.3,6.6l-6.1,6L469.7,140z"/>
				<path id="pf4wOaYvZ" class="st7" d="M124.8,139.2c-0.4-0.7-2.3-3.7-4.2-6.6l-3.5-5.6l5-3.2c2.8-1.7,8-4.3,11.5-6l6.4-2.8
					l7.3,6.6c7.1,6.3,8.8,8.5,6.4,8.5c-0.6,0-7.2,2.3-14.7,5.2C130,138.6,125.3,140.1,124.8,139.2z"/>
				<path id="p18a3Afxbq" class="st7" d="M511.9,135.1c-7.8-2.9-14.3-5.6-14.6-5.9c-0.8-0.7,11.6-12.9,13.9-13.5
					c2-0.8,22.9,9.5,22.9,11.2c0,1-7.3,13.9-7.8,13.5C526.1,140.5,519.6,138.1,511.9,135.1z"/>
				<path id="phrJjjPYL" class="st7" d="M236.1,133.8v-5.5l5.6-1.2c2.9-0.6,5.7-0.9,6-0.7c0.3,0.2,0.6,2.6,0.6,5.4l0.1,5l-6.1,1.3
					l-6.1,1.2L236.1,133.8L236.1,133.8z"/>
				<path id="pjRxcmmmC" class="st7" d="M409.8,138.1l-5.9-1.2l-0.3-5.7c-0.3-5.4-0.2-5.6,2-5.1c1.4,0.3,4.2,1,6.4,1.3l3.8,0.8v5.7
					c0,3.2-0.1,5.6-0.2,5.6C415.6,139.4,412.8,138.9,409.8,138.1z"/>
				<path id="pP0hZS5Kn" class="st7" d="M446.6,133.5c-5.5-1.5-10.2-2.8-10.4-3c-0.2-0.1,0.1-3.6,0.9-7.7c1.1-5.7,1.8-7.3,3-7.3
					c1.6,0,19.5,4.5,23.1,5.9c1,0.3,0.3,2.5-2.4,7.9c-2,4-3.8,7.2-4,7.2C456.7,136.2,452.1,135,446.6,133.5z"/>
				<path id="p4hEJMcJL" class="st7" d="M190.7,128.9c-1.8-3.6-2.8-6.8-2.3-7.2c1.5-1.3,22.3-6.6,23.8-6.1c1.6,0.6,4.3,13.5,3,14.4
					c-1,0.9-17.4,5.2-19.5,5.2C194.8,135.4,192.7,132.8,190.7,128.9z"/>
				<path id="p1DC0yqEiq" class="st7" d="M281.4,129.6c-0.4-1.2-1.2-3.7-1.6-5.5c-0.7-3.2-0.4-3.5,1.8-3.5c1.4,0,4.1-0.3,6.2-0.7
					c3.6-0.7,3.8-0.6,5.5,4c1,2.5,1.8,5.2,1.8,5.9c0,0.8-2.5,1.4-6.4,1.6C282.9,131.8,282.1,131.5,281.4,129.6z"/>
				<path id="pS9mY8eEL" class="st7" d="M364,131.4c-8.1-0.4-8.1-0.4-5.6-6.4c2-5.2,2.4-5.4,5.4-4.8c1.7,0.3,4.5,0.7,6.1,0.7
					c2.8,0,3,0.2,2.4,2.9C370.5,130.9,369.6,131.8,364,131.4z"/>
				<path id="p12RnJH74d" class="st7" d="M250.4,119.3c-0.4-6.3-0.7-11.6-0.3-11.8c0.8-0.9,20.9-3.3,21.2-2.6
					c0.2,0.3,1.7,4.7,3.2,9.9c1.6,5.1,3,9.9,3.5,10.8c0.3,1-1.6-0.7-4.3-3.6c-5.5-6-9-7.2-13.4-5.4c-3.2,1.3-6.9,6.4-8.2,11.3
					C251.4,129.8,251,127.2,250.4,119.3z"/>
				<path id="puV1ZUiu4" class="st7" d="M297.2,127.5c-0.7-1.5-1.5-3.8-2-5.2c-1-2.2-0.8-2.5,2.2-3.2c6.1-1.2,6.1-1.1,6.1,5.2
					c0,5.5-0.1,5.9-2.6,5.9C299,130.1,297.9,129.3,297.2,127.5z"/>
				<path id="pNj6iOCo2" class="st7" d="M306.2,125.9c-1.3-8-2.8-7.3,19.3-7.3h20v5.6v5.5h-19.3h-19.3L306.2,125.9z"/>
				<path id="pGs2gTHiC" class="st7" d="M348.4,124.7c0.3-3,0.8-5.7,0.9-6c0.1-0.1,2,0,4.5,0.4l4.2,0.7l-2,5.2
					c-1.9,4.4-2.6,5.2-5.2,5.2C347.7,130.1,347.7,130.1,348.4,124.7z"/>
				<path id="pvg6B33Eb" class="st7" d="M398.9,125.3c-2.2-5.4-7.1-10-10.5-10c-2.9,0-7.9,3.3-11.5,7.6l-2.9,3.5l1.6-5.3
					c0.9-2.8,2.3-8,3.3-11.3c1.6-5.6,1.9-6.1,4.5-5.6c1.5,0.3,6.3,1,10.6,1.6s7.8,1.3,7.9,1.4c0,0.1-0.2,5.3-0.6,11.5l-0.6,11.4
					L398.9,125.3z"/>
				<path id="pqmW2LItK" class="st7" d="M425.6,127.9l-6.8-1.7l-0.3-8.1c-0.2-4.4,0-8.1,0.3-8.1c1.9,0,15.9,3.5,16.7,4.1
					c0.8,0.8-1.6,14.4-2.5,15.2C432.7,129.7,429.3,128.9,425.6,127.9z"/>
				<path id="pCueIhSG1" class="st7" d="M217.4,123c-1.9-9.4-2-9.1,6-10.7c3.8-0.8,7.7-1.6,8.5-1.9c1-0.3,1.3,1.7,1.3,7.9v8.5
					l-5.4,1.2C218.9,129.8,218.7,129.8,217.4,123z"/>
				<path id="pXeVKLURE" class="st7" d="M150.1,120.5c-4.2-4.1-7.7-7.7-7.7-7.9c0-0.4,12.2-6.7,13-6.7c0.3,0,1.3,2,2.2,4.7
					c1.1,2.6,2.4,4.7,2.9,4.7c0.7,0,3.7-0.9,6.7-1.8l5.7-1.8l-0.7-5.5l-0.7-5.5l5.4-1.2c7.7-1.6,7.4-1.7,7.4,4.1c0,6,0.2,6.1,8,4.1
					l4.6-1.2V101v-5.5l6.1-1.3c3.3-0.8,6.8-1.6,7.9-1.8c1.6-0.6,1.8,0.2,1.8,4.8c0,6.1-0.7,6,8.1,2.3c4.1-1.7,4.5-2,4.5-5.6
					c0-4,1.3-5.2,5.4-5.2c1.8,0,2,0.9,2,9.3v9.1l-17.1,4.1c-9.4,2.2-25.4,6.6-35.4,9.8c-10.1,3.1-19.3,6.1-20.5,6.2
					C158.2,127.9,155.6,126,150.1,120.5z"/>
				<path id="ppe3gUc5b" class="st7" d="M477.1,123.1c-14.2-4.7-53.4-15-57-15c-1.8,0-2-1-2-9.5c0-10.2,0.1-10.4,6.1-8.9
					c1.9,0.6,2.3,1.4,2.3,4.5c0,3.7,0.3,4,5.5,6.2c2.9,1.3,5.7,2,6,1.8c0.2-0.2,0.8-2.6,1.1-5.3c0.3-3.4,1-4.7,1.8-4.3
					c0.8,0.2,4.2,1.1,7.8,1.8l6.4,1.3v5.6c0,5.6,0,5.6,4,6.6c7.4,2,8.7,1.4,8.7-6c0-3.3,0.2-3.7,2.4-3.2c1.3,0.3,4.1,1,6.3,1.4
					l4,0.7l-0.7,5.7l-0.8,5.6l5.6,1.6c7.6,2.3,7.8,2.2,9.4-2.6c0.9-2.3,1.7-4.4,2-4.6s3.7,1,7.3,2.7l6.7,3.2l-7.8,7.8
					c-4.3,4.3-8.6,7.9-9.5,7.8C492.1,127.8,484.9,125.7,477.1,123.1z"/>
				<path id="p2Jp2AkRE" class="st7" d="M236.1,117.7v-8.3l4-0.8c7.8-1.3,7.6-1.5,7.6,7.1v7.8l-3.8,0.7c-2.2,0.4-4.8,1-5.9,1.3
					C236.3,126,236.1,125.1,236.1,117.7z"/>
				<path id="p1HHQZ4aBG" class="st7" d="M410,124.7c-2.4-0.4-4.8-1.1-5.4-1.4c-0.9-0.6-0.3-14.2,0.6-15.2c0.1-0.1,2.7,0,5.6,0.4
					l5.4,0.8v8.3c0,4.5-0.3,8.3-0.8,8.2C414.8,125.7,412.6,125.2,410,124.7z"/>
				<path id="p1EGj7LGwJ" class="st7" d="M111.5,118c-2.3-3.6-4.1-7-4.1-7.6c0-1.1,7.7-5.6,9.5-5.6c1.2,0,11.3,12.7,10.5,13.2
					c-0.1,0.1-2.8,1.7-6.1,3.5l-6,3.3L111.5,118z"/>
				<path id="pGTJwegzJ" class="st7" d="M530.8,121.6c-2.6-1.7-5.2-3.2-5.7-3.4c-0.8-0.2,4.1-7.8,8.5-13.3c0.4-0.6,6.6,2,9.6,3.8
					l2.3,1.4l-4.2,6.4c-2.3,3.6-4.5,6.8-5,7.1C535.9,124.3,533.5,123.3,530.8,121.6z"/>
				<path id="pLx5BSEfl" class="st7" d="M276.2,111.7c-1.3-3.8-2-7.1-2-7.3c0.2-0.1,2.6-0.4,5.4-0.7l5.2-0.3l2.6,6.6
					c1.5,3.7,2.5,6.7,2.3,6.9c-0.2,0.2-2.8,0.8-6,1.2l-5.5,0.8L276.2,111.7z"/>
				<path id="pg34Zy5ST" class="st7" d="M365.3,117.6l-3.8-0.7l2.6-6.3c1.5-3.5,2.9-6.6,3.4-7.1c0.4-0.4,2.9-0.4,5.6-0.1l4.8,0.7
					l-2,7c-1.1,3.8-2,7-2,7.1C374,118.7,369.7,118.3,365.3,117.6z"/>
				<path id="pSALwGfxj" class="st7" d="M290.2,110.3c-1.6-3.6-2.6-6.8-2.3-7c0.2-0.3,6-0.9,12.6-1.2l12.1-0.8l0.6,6.2
					c0.3,3.4,0.2,6.6-0.3,7.2c-0.6,0.6-5.2,1.3-10.4,1.6l-9.4,0.6L290.2,110.3z"/>
				<path id="pT0aneiSd" class="st7" d="M125.1,109.9l-4.8-6.6l5.1-1.7c6-2,6.1-1.9,10.4,6.6l2.5,5.1l-3.8,1.6c-2,0.9-4,1.6-4.2,1.6
					C130.2,116.4,127.8,113.5,125.1,109.9z"/>
				<path id="peu7VlQM9" class="st7" d="M340.5,115.7c-2.2-0.4-2.4-1-2-6.9l0.3-6.4l12.5,0.3c6.9,0.1,12.7,0.4,13,0.6
					c0.2,0.2-0.9,3.2-2.2,6.6l-2.5,6.2l-8.3,0.1C346.6,116.1,341.9,116,340.5,115.7z"/>
				<path id="p4TCVa1oV" class="st7" d="M517.5,114.8c-1.9-0.9-3.5-1.7-3.5-2s1.6-3.4,3.5-6.7l3.4-6.2l5.1,1.5
					c3.5,1.1,5,1.9,4.6,2.9c-1,2.2-8.2,12.1-9,12.1C521.1,116.3,519.2,115.7,517.5,114.8z"/>
				<path id="pgqMwqmOW" class="st7" d="M316,108.5v-6.8h10h10v6.8v6.8h-10h-10V108.5z"/>
				<path id="pGSVZkTTl" class="st7" d="M103.5,106.5c-1-1.2,0-2,5-4.5c3.4-1.7,9.1-4.2,12.7-5.5c5.6-2,6.8-2.2,7.6-1.1
					c1.3,2,0.6,2.7-3.3,3.6c-1.8,0.3-7.1,2.4-12,4.7C106.2,107.1,104.4,107.6,103.5,106.5z"/>
				<path id="pcE5tkNw3" class="st7" d="M542.9,105.8c-1.7-1.1-6.7-3.3-11.1-4.8c-9-3.2-10.4-4-8.8-5.7c1.5-1.5,5.9-0.1,18.2,5.5
					c7.4,3.5,8.7,4.3,7.4,5.7C547.1,108.3,546.7,108.3,542.9,105.8z"/>
				<path id="p1FFNhwg8z" class="st7" d="M236.1,98.6c0-7.9,0.1-8.5,2.4-8.9c1.3-0.3,3.6-0.8,5.3-1.2c2.6-0.6,2.8-0.3,2.8,2.9
					c0,2,0.3,5.9,0.7,8.5l0.7,4.7l-5.4,1.2c-3,0.7-5.7,1.2-6,1.2C236.3,106.9,236.1,103.2,236.1,98.6z"/>
				<path id="pSbdBm0cQ" class="st7" d="M411.4,106.3c-7.6-1.6-6.9-0.7-6.6-9.6l0.3-8.1l3.2,0.3c8.1,0.7,7.9,0.6,7.9,9.7
					C416.1,107.3,416.1,107.3,411.4,106.3z"/>
				<path id="pWaZjy6cM" class="st7" d="M250,96l0.3-8.6l7.6-1.2l7.7-1.2l2.4,8c1.4,4.4,2.4,8.1,2.3,8.2c-0.1,0.2-4.7,1-10.4,1.7
					l-10.2,1.4L250,96z"/>
				<path id="p1BJJAZp44" class="st7" d="M391.5,103.1c-5.2-0.8-9.6-1.5-9.7-1.7c-0.3-0.2,2.6-10.6,4.2-15c0.3-0.9,2-1,6.1-0.3
					c11.3,2,10.3,1.1,10.3,9.9c0,4.2-0.3,8-0.8,8.2C401.1,104.2,396.6,103.9,391.5,103.1z"/>
				<path id="p5dq3dWhv" class="st7" d="M94.3,99.3c-5.1-4.1-5.4-4.5-3.7-6c3-2.3,18.2-9.1,28.1-12.6l9.1-3.3l-0.3,7l-0.3,7
					l-6.3,2.3c-3.5,1.2-9.7,3.8-13.9,6.1l-7.3,3.7L94.3,99.3z"/>
				<path id="pJaDbwPzS" class="st7" d="M546.1,100.5c-2.8-1.7-9-4.3-13.4-6l-8.1-2.9l-0.3-7c-0.2-4-0.2-7.1,0-7.1
					c1.7,0,22.7,8.7,30,12.3l9.3,4.6L558,99c-3,2.6-5.9,4.6-6.1,4.6C551.5,103.6,549,102.2,546.1,100.5z"/>
				<path id="p1DHXXaXjg" class="st7" d="M270.9,94.4c-2.6-8.8-2.6-9.1-0.6-10c5-1.9,6.3-0.9,9.6,7.6c1.8,4.4,3.2,8.1,3,8.2
					c0,0.1-2.3,0.4-5.1,0.8l-4.8,0.7L270.9,94.4z"/>
				<path id="psU7mvIJt" class="st7" d="M372.7,101c-2.2-0.2-4-0.7-4-0.9c0-0.2,1.4-3.8,3-8.1c2.7-6.8,3.5-7.7,6.1-8
					c5.5-0.4,6,0.8,3.4,9.6c-1.4,4.5-2.9,8-3.6,7.9C377.1,101.4,374.8,101.2,372.7,101z"/>
				<path id="pWFLmrpDQ" class="st7" d="M285.6,98.6c-1.5-2.7-6.3-15-6.3-16c0-0.4,3.5-0.9,7.8-0.9h7.8l0.7,4.7l0.8,4.7h5.3h5.2
					v-5.2v-5.1l6.8-0.4l6.7-0.3l0.3,5.3l0.3,5.3l5,0.3l5,0.3V86v-5.4h7.3h7.3v5.3v5.3h5.3c4.7,0,5.3-0.2,5.3-2.3
					c0.1-6.6,0.8-7.1,9.1-7.1c9,0,8.7-1,3.7,11.2l-2.8,6.8l-39.7,0.2C291.8,100.1,286.4,99.8,285.6,98.6z"/>
				<path id="p17Qrs9mzp" class="st7" d="M82.9,87.8c-1.7-2.5-3.5-5.1-3.8-5.9c-0.6-0.9,0.7-2.2,3.6-4.1c3.7-2.3,4.5-2.5,5.3-1.3
					c0.6,0.9,1.8,2.6,2.8,4l2,2.4l5-2.9c3.4-2,4.7-3.4,4.4-4.6c-1.9-6.9-1.8-7.3,1.4-9c3-1.5,3.2-1.5,6.1,2.2l3,3.8l5.1-2.4
					c4.6-2.3,5-2.7,4.6-6c-0.3-2.9-0.1-3.4,2.6-3.8c1.7-0.3,4.4-0.7,6.1-0.7c2.7,0,3,0.4,3,3.2c0,1.8-1,5.1-2,7.2
					c-1.9,3.7-2.9,4.3-11.8,7.4c-5.4,1.8-15.1,6-21.8,9C91.9,89.5,86.4,92,86.3,92C86,92.2,84.6,90.2,82.9,87.8z"/>
				<path id="psyG9VePA" class="st7" d="M561.6,90.6c-3.5-2.4-21.6-10.2-31.4-13.5c-7.9-2.6-8.5-2.9-10.1-7.2
					c-1.1-2.4-1.9-5.9-1.9-7.3c0-3,1.6-3.5,8.3-2.2c2.9,0.7,3.4,1.1,3,3.8c-0.3,2.6,0.3,3.4,4.7,5.9l5.1,2.8l2.8-3.6
					c2.7-3.2,3.3-3.4,6.1-2.4c1.7,0.7,2.9,1.5,2.8,2c-0.1,0.6-0.4,2.6-0.9,4.8c-0.8,3.7-0.6,3.8,4.3,6.7c4.8,2.8,5.1,2.8,6.3,0.9
					c4.1-6.1,3.7-6,8.6-2.9l4.4,2.6l-4,5.4C565.2,92.4,564.7,92.7,561.6,90.6z"/>
				<path id="pIbBMdl8b" class="st7" d="M235.8,81.5c-0.4-2.9-0.6-5.6-0.4-5.7c0.1-0.1,2.7-0.6,5.9-1l5.5-0.8v5.9
					c0,5.6-0.1,5.9-3.3,6.4C236.9,87.5,236.4,87.3,235.8,81.5z"/>
				<path id="pdSSAlHk5" class="st7" d="M408,86.3c-2.2-0.4-2.4-1.1-2.4-6.3v-5.9l3.3,0.7c1.8,0.3,4.2,0.7,5.3,0.7
					c1.7,0,2,0.9,2,5.9c0,5.7-0.1,5.9-2.8,5.7C411.6,86.8,409.2,86.4,408,86.3z"/>
				<path id="plldpTZcx" class="st7" d="M248.8,79.7c0-4.8,0.1-5.2,3.3-5.9c1.8-0.3,5.1-0.7,7.2-0.7c3.8,0,4,0.1,4.6,4.3
					c0.4,2.4,0.6,4.5,0.3,4.7c-0.6,0.6-11.2,2.5-13.5,2.5C249,84.8,248.8,83.9,248.8,79.7z"/>
				<path id="pIluUwHFU" class="st7" d="M391.8,83.5l-4.7-1.3l1-4.6l1-4.6l6.7,0.7c3.8,0.2,7,0.7,7.2,0.9c0.2,0.2,0.1,2.6-0.2,5.5
					c-0.6,4.5-0.9,5-3.4,4.8C397.8,84.7,394.5,84.1,391.8,83.5z"/>
				<path id="pCMVKzg8k" class="st7" d="M380.6,81.9c-3.4-0.3-3.5-0.6-3.5-5.1v-4.6h4.2c4.1,0,4.2,0.1,4.1,3.5
					C385.3,81.1,384.4,82.2,380.6,81.9z"/>
				<path id="pqXZm5iLW" class="st7" d="M267.3,81c-0.2-0.4-0.8-2.6-1.2-4.7l-0.8-4h4.8h4.8l-0.3,4.5c-0.3,4.1-0.6,4.4-3.7,4.7
					C269.3,81.7,267.7,81.3,267.3,81z"/>
				<path id="pU9WRxA4R" class="st7" d="M232.7,72.5c-0.4-0.3-0.8-1.9-0.8-3.5v-2.8l20.3-1.9c11.1-1,21.2-1.9,22.3-2
					c2.3-0.1,3.6,4.1,1.8,6c-0.6,0.6-8.3,1.7-17.1,2.4c-9,0.9-18.4,1.8-21.1,2C235.5,73.1,233.1,73,232.7,72.5z"/>
				<path id="pYFBYvR0i" class="st7" d="M396.1,71.1C386,70,377,69.2,376.5,69.2c-0.9-0.1-1.4-1.6-1.4-3.8c0-3.4,0.2-3.8,2.4-3.3
					c1.3,0.3,11.5,1.4,22.6,2.4c15.5,1.5,20.2,2.2,20.2,3.4c0,2.5-2,5.5-4,5.4C415.4,73.1,406.2,72.1,396.1,71.1z"/>
				<path id="pB7yIHDDh" class="st7" d="M230.8,61.2c0-1.8,0.7-2.6,1.9-2.6c1,0,9.9-1,19.6-2c23.7-2.7,23.7-2.7,23.7,0.6
					c0,1.5-0.4,2.6-0.9,2.6c-0.4,0-10,1-21.3,2c-11.3,1.2-21.1,2-21.8,2C231.4,63.8,230.8,62.7,230.8,61.2z"/>
				<path id="pqrKi9zN2" class="st7" d="M401.3,62.2c-7.2-0.8-16.1-1.7-19.7-2c-6.2-0.7-6.4-0.9-6-2.9c0.3-1.3,0.9-2.5,1.1-2.7
					s9.7,0.7,21.2,1.9s21.5,2.2,22.2,2.2c0.9,0,1.3,1,1.1,2.4C420.7,63.9,418.7,64,401.3,62.2z"/>
				<path id="p1DS9hT2TQ" class="st7" d="M221.6,48.7c-7.7-7.8-9.8-12.3-5.6-12.3c1.1,0,3.5-0.3,5.3-0.7c2.9-0.7,3.3-0.4,3.3,2
					c0,3.2,0.1,3.2,7.3,1.6c4.4-1,5.3-1.5,5.3-3.6c0-1.9,0.8-2.5,3.5-2.9c4-0.7,5-0.2,5,2.3c0,1.7,0.7,1.8,5.1,1.1
					c2.7-0.4,5.6-0.9,6.3-0.9c0.7-0.1,1.3-1.3,1.3-2.7c0-2.2,0.6-2.6,3-2.6c1.7,0,3.8-0.3,4.7-0.7c1.1-0.4,1.7-0.1,1.7,1
					c0,2.4,1.5,2.9,6.3,2.2c3.3-0.6,4.2-1.1,3.7-2.3c-0.9-2.2,1.3-3.4,6.1-3.4c3.5,0,3.8,0.3,3.8,2.7c0,2-7.3,16.2-11.1,21.3
					c-0.2,0.3-43.8,5.4-46.4,5.5C229.7,56.4,225.8,52.9,221.6,48.7z"/>
				<path id="ptG5T0WGE" class="st7" d="M396.8,53.8c-11.5-1.4-21.2-2.6-21.5-3c-0.3-0.3-3-4.6-6.1-9.7c-6.7-11.3-6.8-14.3-0.1-14
					c3.5,0.2,4.4,0.8,4.6,2.6c0.2,1.8,1.3,2.4,4.6,2.9c4,0.8,5.1,0.2,6.3-2.7c0.2-0.4,2.2-0.4,4.5,0c3.5,0.6,4.2,1.1,3.8,2.8
					c-0.2,1.9,0.4,2.3,3.7,2.9c7.6,1.2,9.8,0.9,9.8-1.6c0-1.8,0.4-2,2.4-1.6c1.3,0.3,3.2,0.7,4.2,0.7c1.2,0,1.8,0.9,1.8,2.5
					c0,2.7,0.9,3.2,8.2,4.3c4.3,0.8,4.4,0.7,4.4-2c0-2.6,0.2-2.8,3.3-2.2c1.8,0.3,4.2,0.7,5.3,0.7c1.4,0,2,0.8,2,2.4
					c0,3.5-14.3,17.6-17.9,17.5C418.8,56.2,408.3,55.1,396.8,53.8z"/>
			</g>
		</g>
	</g>
</g>
</svg>
